<svg xmlns="http://www.w3.org/2000/svg" version="1.1" viewBox="0 0 380 142" width="100%" height="100%">
<path d="M 0.00 0.00 L 42.59 0.00 C 34.38 0.69 26.34 4.85 20.01 9.97 C 8.98 19.07 2.63 32.84 1.63 46.99 C 1.02 56.03 1.13 65.10 5.84 73.15 C 10.88 81.96 20.19 86.98 30.09 88.13 C 42.69 90.14 55.40 85.82 64.58 77.09 C 67.28 82.36 71.37 85.92 77.21 87.23 C 82.69 88.08 88.22 87.89 93.27 85.39 C 103.61 80.64 109.66 70.99 113.27 60.58 C 115.35 60.09 117.41 59.55 119.48 59.00 C 119.33 65.74 118.78 71.89 121.84 78.12 C 124.23 83.80 129.97 87.21 136.00 87.52 C 146.61 88.25 157.55 84.39 166.06 78.14 C 168.84 83.13 173.29 86.40 178.94 87.37 C 184.19 88.04 189.46 87.76 194.27 85.36 C 204.59 80.58 210.55 71.01 214.23 60.62 C 216.52 60.06 218.78 59.41 221.03 58.69 C 219.18 65.40 217.28 71.57 219.30 78.55 C 220.33 82.86 223.57 86.34 227.95 87.29 C 236.01 88.53 243.96 84.79 248.93 78.48 C 250.00 82.64 251.43 86.02 255.92 87.28 C 264.11 88.86 273.70 85.37 278.41 78.34 C 279.48 81.03 280.21 83.61 282.95 85.07 C 286.55 87.09 290.27 86.90 294.10 85.70 C 294.71 78.60 295.74 71.92 299.89 65.94 C 303.51 60.53 308.88 56.72 314.57 53.75 C 321.42 56.82 328.47 56.00 335.50 54.08 C 339.47 59.30 345.23 61.00 350.14 64.86 C 353.34 67.39 353.47 72.50 349.83 74.65 C 345.29 77.72 338.37 75.85 336.15 70.83 C 334.94 68.40 335.39 65.87 335.47 63.26 C 332.27 62.58 329.43 62.46 326.98 64.98 C 322.18 70.04 323.90 78.91 328.65 83.39 C 333.79 88.13 340.82 88.56 347.46 88.06 C 355.23 87.44 363.62 83.49 367.65 76.56 C 370.96 70.75 371.80 63.11 367.39 57.62 C 362.99 52.55 356.58 52.00 351.60 48.36 C 348.66 46.12 348.07 41.52 351.40 39.34 C 355.00 37.43 360.49 38.65 362.40 42.51 C 363.19 45.16 362.53 48.42 362.14 51.13 C 365.97 51.06 370.15 50.94 373.04 48.05 C 377.18 43.13 375.71 35.03 370.61 31.33 C 365.35 27.24 359.41 27.01 353.00 27.26 C 346.98 27.37 340.44 29.82 336.48 34.49 C 334.04 37.28 333.45 40.71 332.60 44.20 C 330.55 44.49 328.51 44.77 326.46 45.05 C 330.37 40.14 331.62 32.69 329.15 26.90 C 326.51 22.12 319.77 21.55 315.54 24.55 C 309.17 28.83 307.84 37.46 308.63 44.55 C 306.42 46.45 304.22 48.36 302.25 50.52 C 303.69 46.27 305.18 41.39 304.44 36.87 C 304.06 33.92 301.65 31.89 299.01 30.88 C 295.32 29.85 291.98 30.59 288.38 31.52 C 288.08 35.81 287.81 40.19 287.02 44.42 C 284.92 54.01 280.94 62.70 279.02 72.34 C 278.37 71.07 277.69 69.80 277.01 68.54 C 273.58 71.36 270.20 73.42 265.60 71.82 C 265.28 70.90 264.96 69.98 264.63 69.06 C 266.96 59.14 273.96 49.39 273.44 38.98 C 273.58 35.15 270.88 31.24 267.13 30.31 C 264.13 29.36 261.42 30.02 258.43 30.55 C 257.73 40.63 254.95 50.50 250.25 59.44 C 248.17 63.23 245.51 67.45 241.83 69.86 C 240.15 71.08 238.35 70.71 236.40 70.80 C 235.74 66.48 237.02 62.82 238.85 58.99 C 241.39 52.92 245.32 45.66 244.85 38.94 C 244.87 35.19 242.19 31.60 238.57 30.60 C 235.22 29.87 232.08 30.41 228.82 31.22 C 228.88 36.73 227.63 41.53 225.64 46.59 C 222.50 48.12 219.50 49.18 216.06 49.87 C 215.81 45.71 215.65 41.49 212.95 38.06 C 211.16 35.71 208.65 34.90 206.12 33.55 C 204.70 30.95 203.22 28.73 200.20 27.85 C 194.79 26.71 189.00 27.35 184.10 29.99 C 174.96 34.59 168.68 43.95 165.56 53.47 C 164.23 57.02 164.30 60.79 163.32 64.37 C 157.09 70.13 147.82 74.75 139.15 73.67 C 136.53 73.37 136.30 70.64 135.30 68.70 C 147.66 62.65 157.80 52.69 164.64 40.80 C 169.11 32.86 171.72 24.16 170.61 14.98 C 170.14 11.21 168.26 7.81 164.87 5.94 C 161.04 4.08 156.65 3.46 152.51 4.66 C 145.08 6.40 139.28 11.93 134.86 17.88 C 128.33 26.88 123.90 37.50 121.36 48.29 C 119.25 48.86 117.15 49.39 115.02 49.87 C 114.77 45.53 114.86 41.55 111.97 38.00 C 110.22 35.70 107.79 34.91 105.29 33.64 C 103.75 31.03 102.35 28.73 99.24 27.85 C 94.11 26.79 88.45 27.27 83.75 29.71 C 74.70 34.01 68.40 42.94 65.09 52.17 C 63.83 55.29 63.64 58.61 62.73 61.79 C 58.53 67.80 51.09 71.48 43.95 72.55 C 35.24 74.32 25.60 70.41 21.61 62.23 C 18.60 56.72 18.99 51.05 19.44 45.00 C 20.70 36.52 24.15 28.37 30.18 22.18 C 34.37 17.96 40.02 14.83 46.01 14.37 C 49.90 14.05 54.18 16.75 55.21 20.59 C 55.87 25.40 53.19 29.02 49.98 32.24 C 51.67 33.93 53.05 35.75 55.43 36.46 C 59.65 37.85 64.62 37.04 67.58 33.54 C 72.27 27.97 72.51 20.85 71.35 13.97 C 69.26 6.50 62.80 1.58 55.35 0.19 L 53.41 0.00 L 380.00 0.00 L 380.00 142.00 L 0.00 142.00 L 0.00 0.00 Z" fill="rgba(255,255,255,0)" />
<path d="M 42.59 0.00 L 53.41 0.00 L 55.35 0.19 C 62.80 1.58 69.26 6.50 71.35 13.97 C 72.51 20.85 72.27 27.97 67.58 33.54 C 64.62 37.04 59.65 37.85 55.43 36.46 C 53.05 35.75 51.67 33.93 49.98 32.24 C 53.19 29.02 55.87 25.40 55.21 20.59 C 54.18 16.75 49.90 14.05 46.01 14.37 C 40.02 14.83 34.37 17.96 30.18 22.18 C 24.15 28.37 20.70 36.52 19.44 45.00 C 18.99 51.05 18.60 56.72 21.61 62.23 C 25.60 70.41 35.24 74.32 43.95 72.55 C 51.09 71.48 58.53 67.80 62.73 61.79 C 63.64 58.61 63.83 55.29 65.09 52.17 C 68.40 42.94 74.70 34.01 83.75 29.71 C 88.45 27.27 94.11 26.79 99.24 27.85 C 102.35 28.73 103.75 31.03 105.29 33.64 C 107.79 34.91 110.22 35.70 111.97 38.00 C 114.86 41.55 114.77 45.53 115.02 49.87 C 117.15 49.39 119.25 48.86 121.36 48.29 C 123.90 37.50 128.33 26.88 134.86 17.88 C 139.28 11.93 145.08 6.40 152.51 4.66 C 156.65 3.46 161.04 4.08 164.87 5.94 C 168.26 7.81 170.14 11.21 170.61 14.98 C 171.72 24.16 169.11 32.86 164.64 40.80 C 157.80 52.69 147.66 62.65 135.30 68.70 C 136.30 70.64 136.53 73.37 139.15 73.67 C 147.82 74.75 157.09 70.13 163.32 64.37 C 164.30 60.79 164.23 57.02 165.56 53.47 C 168.68 43.95 174.96 34.59 184.10 29.99 C 189.00 27.35 194.79 26.71 200.20 27.85 C 203.22 28.73 204.70 30.95 206.12 33.55 C 208.65 34.90 211.16 35.71 212.95 38.06 C 215.65 41.49 215.81 45.71 216.06 49.87 C 219.50 49.18 222.50 48.12 225.64 46.59 C 227.63 41.53 228.88 36.73 228.82 31.22 C 232.08 30.41 235.22 29.87 238.57 30.60 C 242.19 31.60 244.87 35.19 244.85 38.94 C 245.32 45.66 241.39 52.92 238.85 58.99 C 237.02 62.82 235.74 66.48 236.40 70.80 C 238.35 70.71 240.15 71.08 241.83 69.86 C 245.51 67.45 248.17 63.23 250.25 59.44 C 254.95 50.50 257.73 40.63 258.43 30.55 C 261.42 30.02 264.13 29.36 267.13 30.31 C 270.88 31.24 273.58 35.15 273.44 38.98 C 273.96 49.39 266.96 59.14 264.63 69.06 C 264.96 69.98 265.28 70.90 265.60 71.82 C 270.20 73.42 273.58 71.36 277.01 68.54 C 277.69 69.80 278.37 71.07 279.02 72.34 C 280.94 62.70 284.92 54.01 287.02 44.42 C 287.81 40.19 288.08 35.81 288.38 31.52 C 291.98 30.59 295.32 29.85 299.01 30.88 C 301.65 31.89 304.06 33.92 304.44 36.87 C 305.18 41.39 303.69 46.27 302.25 50.52 C 304.22 48.36 306.42 46.45 308.63 44.55 C 307.84 37.46 309.17 28.83 315.54 24.55 C 319.77 21.55 326.51 22.12 329.15 26.90 C 331.62 32.69 330.37 40.14 326.46 45.05 C 328.51 44.77 330.55 44.49 332.60 44.20 C 333.45 40.71 334.04 37.28 336.48 34.49 C 340.44 29.82 346.98 27.37 353.00 27.26 C 359.41 27.01 365.35 27.24 370.61 31.33 C 375.71 35.03 377.18 43.13 373.04 48.05 C 370.15 50.94 365.97 51.06 362.14 51.13 C 362.53 48.42 363.19 45.16 362.40 42.51 C 360.49 38.65 355.00 37.43 351.40 39.34 C 348.07 41.52 348.66 46.12 351.60 48.36 C 356.58 52.00 362.99 52.55 367.39 57.62 C 371.80 63.11 370.96 70.75 367.65 76.56 C 363.62 83.49 355.23 87.44 347.46 88.06 C 340.82 88.56 333.79 88.13 328.65 83.39 C 323.90 78.91 322.18 70.04 326.98 64.98 C 329.43 62.46 332.27 62.58 335.47 63.26 C 335.39 65.87 334.94 68.40 336.15 70.83 C 338.37 75.85 345.29 77.72 349.83 74.65 C 353.47 72.50 353.34 67.39 350.14 64.86 C 345.23 61.00 339.47 59.30 335.50 54.08 C 328.47 56.00 321.42 56.82 314.57 53.75 C 308.88 56.72 303.51 60.53 299.89 65.94 C 295.74 71.92 294.71 78.60 294.10 85.70 C 290.27 86.90 286.55 87.09 282.95 85.07 C 280.21 83.61 279.48 81.03 278.41 78.34 C 273.70 85.37 264.11 88.86 255.92 87.28 C 251.43 86.02 250.00 82.64 248.93 78.48 C 243.96 84.79 236.01 88.53 227.95 87.29 C 223.57 86.34 220.33 82.86 219.30 78.55 C 217.28 71.57 219.18 65.40 221.03 58.69 C 218.78 59.41 216.52 60.06 214.23 60.62 C 210.55 71.01 204.59 80.58 194.27 85.36 C 189.46 87.76 184.19 88.04 178.94 87.37 C 173.29 86.40 168.84 83.13 166.06 78.14 C 157.55 84.39 146.61 88.25 136.00 87.52 C 129.97 87.21 124.23 83.80 121.84 78.12 C 118.78 71.89 119.33 65.74 119.48 59.00 C 117.41 59.55 115.35 60.09 113.27 60.58 C 109.66 70.99 103.61 80.64 93.27 85.39 C 88.22 87.89 82.69 88.08 77.21 87.23 C 71.37 85.92 67.28 82.36 64.58 77.09 C 55.40 85.82 42.69 90.14 30.09 88.13 C 20.19 86.98 10.88 81.96 5.84 73.15 C 1.13 65.10 1.02 56.03 1.63 46.99 C 2.63 32.84 8.98 19.07 20.01 9.97 C 26.34 4.85 34.38 0.69 42.59 0.00 Z" fill="#000000" />
<path d="M 155.06 20.02 C 156.42 25.31 154.45 29.73 152.42 34.48 C 148.92 41.64 143.72 49.09 136.71 53.16 C 139.04 43.91 142.12 34.23 147.02 26.00 C 149.05 22.93 150.85 19.77 155.06 20.02 Z" fill="rgba(255,255,255,1)" />
<path d="M 94.24 38.28 C 93.04 42.57 92.25 46.68 93.82 51.02 C 94.70 53.98 96.71 55.90 98.75 58.09 C 97.27 62.86 95.45 67.30 91.95 70.97 C 90.03 72.89 87.80 74.56 84.93 74.34 C 82.47 74.31 80.63 72.09 80.13 69.81 C 78.90 65.10 79.90 59.67 81.08 55.02 C 83.35 48.16 86.92 40.80 94.24 38.28 Z" fill="rgba(255,255,255,1)" />
<path d="M 194.82 38.26 C 194.27 42.44 193.41 46.15 194.51 50.36 C 195.30 53.68 197.47 55.71 199.69 58.11 C 197.92 63.56 195.83 68.59 191.33 72.37 C 189.43 73.93 187.28 74.65 184.80 74.26 C 182.19 73.23 180.95 70.79 180.65 68.12 C 179.97 61.29 181.59 54.63 184.63 48.54 C 186.92 43.91 190.00 40.33 194.82 38.26 Z" fill="rgba(255,255,255,1)" />
<path d="M 80.47 109.71 C 85.21 108.62 90.30 109.68 93.73 113.24 C 98.77 118.48 98.32 127.99 92.55 132.53 C 86.31 137.48 76.00 135.93 72.31 128.58 C 68.58 121.16 72.14 111.72 80.47 109.71 Z" fill="#000000" />
<path d="M 141.43 109.61 C 146.15 108.67 151.16 109.86 154.45 113.48 C 159.35 118.90 158.71 128.36 152.75 132.76 C 146.12 137.70 135.47 135.56 132.35 127.57 C 129.34 120.04 133.27 111.27 141.43 109.61 Z" fill="#000000" />
<path d="M 180.18 112.68 C 179.18 114.01 178.17 115.33 177.16 116.66 C 174.16 114.95 170.98 113.23 167.45 114.57 C 166.07 115.25 165.83 116.24 166.46 117.62 C 169.95 119.73 175.50 119.60 178.57 122.42 C 182.23 125.72 180.63 132.36 176.25 134.23 C 170.60 136.58 164.44 135.34 159.70 131.61 C 160.68 130.21 161.66 128.81 162.65 127.41 C 165.96 129.72 169.05 131.64 173.25 130.29 C 174.91 129.59 175.80 128.07 174.49 126.53 C 171.04 124.37 165.33 124.58 162.41 121.61 C 159.43 118.47 160.38 113.24 163.97 111.00 C 169.17 107.90 175.47 109.28 180.18 112.68 Z" fill="#000000" />
<path d="M 101.01 109.66 C 106.99 109.65 112.97 109.66 118.94 109.66 C 118.94 111.24 118.94 112.82 118.94 114.40 C 114.76 114.40 110.59 114.40 106.41 114.40 C 106.40 116.19 106.40 117.98 106.40 119.76 C 110.49 119.77 114.59 119.77 118.68 119.76 C 118.68 121.35 118.68 122.93 118.68 124.51 C 114.59 124.51 110.50 124.51 106.40 124.51 C 106.40 128.01 106.40 131.50 106.40 135.00 C 104.60 135.00 102.81 135.00 101.01 135.00 C 101.01 126.55 101.01 118.10 101.01 109.66 Z" fill="#000000" />
<path d="M 182.95 109.66 C 189.69 109.65 196.43 109.65 203.16 109.66 C 203.16 111.24 203.16 112.82 203.16 114.40 C 200.71 114.40 198.25 114.40 195.80 114.40 C 195.79 121.27 195.80 128.13 195.80 135.00 C 193.98 135.00 192.17 135.00 190.36 135.00 C 190.36 128.13 190.36 121.27 190.36 114.41 C 187.89 114.40 185.42 114.40 182.96 114.40 C 182.95 112.82 182.95 111.24 182.95 109.66 Z" fill="#000000" />
<path d="M 206.51 109.66 C 211.28 109.79 216.22 109.28 220.94 110.02 C 225.44 111.03 227.58 115.51 226.61 119.84 C 226.05 122.91 223.85 124.08 221.43 125.61 C 223.34 128.71 225.17 131.86 227.02 135.00 C 224.96 135.00 222.90 135.00 220.84 135.00 C 219.18 132.00 217.51 129.00 215.85 125.99 C 214.54 126.00 213.22 126.00 211.91 126.00 C 211.91 129.00 211.91 132.00 211.91 135.00 C 210.11 135.00 208.31 135.00 206.51 135.00 C 206.51 126.55 206.51 118.11 206.51 109.66 Z" fill="#000000" />
<path d="M 238.22 109.78 C 240.42 109.55 242.66 109.65 244.87 109.64 C 248.13 118.09 251.39 126.55 254.64 135.00 C 252.59 135.00 250.53 135.00 248.47 134.99 C 247.96 133.56 247.45 132.13 246.93 130.71 C 243.31 130.71 239.68 130.71 236.06 130.71 C 235.53 132.13 235.01 133.56 234.48 134.99 C 232.42 135.00 230.37 135.00 228.31 135.00 C 231.67 126.63 234.64 118.05 238.22 109.78 Z" fill="#000000" />
<path d="M 254.32 109.66 C 256.36 109.66 258.41 109.65 260.46 109.65 C 262.81 116.14 265.14 122.65 267.50 129.14 C 269.83 122.64 272.15 116.14 274.50 109.65 C 276.54 109.65 278.59 109.66 280.64 109.66 C 277.39 118.11 274.13 126.55 270.88 135.00 C 268.62 135.00 266.37 135.00 264.11 135.00 C 261.22 127.51 258.32 120.03 255.43 112.54 C 255.06 111.58 254.69 110.62 254.32 109.66 Z" fill="#000000" />
<path d="M 290.22 109.78 C 292.42 109.55 294.66 109.65 296.87 109.64 C 300.13 118.09 303.39 126.55 306.64 135.00 C 304.59 135.00 302.53 135.00 300.47 134.99 C 299.96 133.56 299.45 132.13 298.93 130.71 C 295.31 130.71 291.68 130.71 288.06 130.71 C 287.53 132.13 287.01 133.56 286.48 134.99 C 284.42 135.00 282.37 135.00 280.31 135.00 C 283.67 126.63 286.64 118.05 290.22 109.78 Z" fill="#000000" />
<path d="M 81.43 114.47 C 84.27 113.56 87.51 114.16 89.57 116.39 C 92.31 119.44 92.40 124.73 89.89 127.93 C 87.51 130.98 82.72 131.47 79.61 129.29 C 74.70 125.75 75.41 116.48 81.43 114.47 Z" fill="rgba(255,255,255,1)" />
<path d="M 141.52 114.63 C 144.54 113.44 148.22 114.12 150.32 116.69 C 152.86 119.76 152.83 125.19 150.17 128.18 C 147.83 130.90 143.49 131.36 140.48 129.54 C 135.31 126.29 135.71 116.99 141.52 114.63 Z" fill="rgba(255,255,255,1)" />
<path d="M 211.91 114.37 C 214.26 114.41 216.71 114.26 219.03 114.67 C 221.81 115.46 222.13 119.35 219.68 120.72 C 217.29 121.55 214.41 121.17 211.91 121.28 C 211.91 118.97 211.91 116.67 211.91 114.37 Z" fill="rgba(255,255,255,1)" />
<path d="M 241.49 115.06 C 242.82 118.69 244.13 122.32 245.45 125.96 C 242.81 125.96 240.18 125.96 237.55 125.96 C 238.86 122.32 240.17 118.69 241.49 115.06 Z" fill="rgba(255,255,255,1)" />
<path d="M 293.49 115.06 C 294.82 118.69 296.13 122.32 297.45 125.96 C 294.81 125.96 292.18 125.96 289.55 125.96 C 290.86 122.32 292.17 118.69 293.49 115.06 Z" fill="rgba(255,255,255,1)" />
</svg>