<svg xmlns="http://www.w3.org/2000/svg" version="1.1" viewBox="0 0 745 299" width="100%" height="100%">
<path d="M 0.00 0.00 L 745.00 0.00 L 745.00 299.00 L 0.00 299.00 L 0.00 0.00 Z" fill="rgba(255,255,255,0)" />
<path d="M 362.87 29.36 C 365.89 30.11 366.96 33.14 370.15 33.56 C 373.65 34.10 376.50 36.23 380.02 36.04 C 384.38 36.16 387.38 38.99 389.39 42.61 C 390.73 45.44 393.41 44.61 396.01 45.08 C 401.05 45.39 405.91 47.10 410.13 49.85 C 412.25 51.32 412.41 53.29 412.39 55.69 C 416.61 57.61 421.03 60.45 423.75 64.28 C 425.05 65.96 424.90 67.75 425.19 69.74 C 426.87 70.76 428.55 71.76 430.20 72.82 C 433.51 75.78 437.52 78.20 439.33 82.53 C 440.72 85.39 438.14 89.06 435.42 89.65 C 435.40 92.12 438.23 94.08 439.51 96.09 C 441.21 99.89 441.39 101.59 438.86 105.02 C 440.82 109.96 442.63 115.69 442.36 121.04 C 441.98 124.43 439.78 125.55 436.73 126.18 C 437.45 131.71 439.25 136.83 437.58 142.61 C 436.58 145.13 433.89 146.67 431.25 145.69 C 429.41 145.11 428.87 143.56 427.77 142.15 C 425.51 142.85 424.09 142.68 421.84 142.05 C 423.08 146.73 425.10 151.17 427.85 155.16 C 429.66 157.83 430.00 162.02 426.74 163.72 C 424.87 164.96 423.25 164.09 421.20 163.99 C 421.65 168.33 422.04 173.39 420.50 177.55 C 419.31 179.87 417.44 179.96 415.11 180.29 C 413.55 185.19 412.16 191.71 408.40 195.39 C 405.34 197.92 402.77 196.64 399.91 194.67 C 398.34 200.31 395.98 204.61 391.76 208.68 C 387.91 212.64 384.13 216.43 379.96 220.07 C 376.65 222.17 374.94 222.54 371.59 220.18 C 371.17 219.17 370.78 218.15 370.43 217.11 C 369.26 217.16 368.14 218.82 367.01 219.28 C 364.41 220.65 362.52 219.32 360.39 217.91 C 359.96 218.64 359.52 219.36 359.07 220.08 C 356.84 222.72 354.76 225.96 352.01 228.07 C 349.40 229.62 347.64 228.35 345.36 227.06 C 344.38 229.65 342.96 232.04 341.21 234.19 C 339.20 236.22 335.88 236.18 334.08 233.89 C 332.11 231.63 333.64 227.96 333.44 225.17 C 329.64 225.47 327.78 223.44 325.69 220.65 C 325.12 219.93 324.79 218.53 323.97 218.16 C 322.87 219.06 322.49 220.32 320.97 220.79 C 319.73 221.15 318.41 221.09 317.01 220.60 C 313.47 217.41 312.07 211.55 310.58 207.15 C 310.10 204.78 309.76 202.39 309.37 200.01 C 307.20 202.39 305.43 204.98 302.81 206.92 C 301.59 206.95 300.37 206.95 299.15 206.91 C 295.64 204.14 295.83 200.42 294.70 196.44 C 292.93 195.73 291.24 195.58 290.23 193.74 C 287.58 188.99 286.05 183.82 285.70 178.38 C 283.35 178.11 281.48 178.06 280.19 175.79 C 278.51 171.65 277.95 166.87 277.66 162.44 C 275.44 161.82 273.58 161.61 272.63 159.21 C 271.02 153.94 271.31 148.57 272.74 143.31 C 270.82 142.38 269.10 141.89 268.40 139.63 C 267.47 134.39 268.00 129.11 269.24 123.96 C 268.35 122.35 266.85 121.00 267.15 119.03 C 267.52 111.82 271.19 106.09 276.18 101.15 C 275.00 99.48 273.86 98.24 273.94 96.03 C 274.61 93.93 276.23 92.91 277.40 91.16 C 279.60 88.46 280.71 85.43 281.04 81.98 C 282.02 76.81 282.73 71.58 287.92 68.96 C 288.09 67.15 287.81 65.32 288.72 63.76 C 290.31 61.40 292.57 58.93 293.40 56.17 C 293.96 54.53 294.59 53.07 296.23 52.24 C 299.57 50.51 302.18 47.95 305.83 46.83 C 307.89 44.74 309.37 43.37 312.07 42.09 C 313.74 38.00 317.43 35.30 321.87 37.12 C 324.14 38.76 326.39 38.08 328.99 38.47 C 333.29 36.93 336.91 34.49 341.37 33.35 C 346.36 29.57 351.03 29.08 357.07 30.59 C 359.09 29.85 360.61 28.75 362.87 29.36 Z" fill="#ffffff" />
<path d="M 360.99 33.92 C 361.89 34.00 362.60 34.32 363.10 34.87 C 365.91 38.33 370.71 38.08 374.87 40.05 L 374.89 40.96 C 372.68 41.97 370.24 41.94 368.04 42.90 C 366.53 43.18 365.25 45.78 363.93 44.14 C 362.88 41.18 365.15 41.56 366.96 40.41 C 364.34 39.95 362.66 40.41 361.04 37.94 C 360.22 39.71 359.65 40.88 358.01 42.04 C 357.53 42.78 357.65 43.66 358.38 44.68 C 359.60 44.90 360.92 44.11 362.10 43.86 C 362.06 46.81 359.82 48.10 358.62 50.60 C 356.43 54.30 357.63 58.19 358.37 62.10 C 357.33 65.05 354.60 64.37 352.54 66.55 C 351.19 68.05 350.90 68.93 351.76 70.84 C 350.31 72.25 348.78 74.07 346.90 74.90 C 345.51 75.34 344.69 76.05 343.67 77.07 C 342.04 76.58 340.47 76.26 338.77 76.06 C 337.42 72.96 341.84 71.09 342.96 68.94 C 344.72 63.70 340.55 60.99 340.53 56.13 C 340.29 53.43 337.71 50.75 339.20 48.15 C 341.13 47.72 340.57 51.29 341.26 52.42 C 342.11 52.32 342.97 52.22 343.84 52.13 C 345.46 55.75 345.41 60.45 347.92 63.52 C 349.83 63.83 351.81 61.10 353.36 60.08 C 352.45 59.31 349.66 58.94 350.25 57.35 C 351.24 56.18 352.88 55.52 353.58 54.17 C 353.54 50.53 351.95 46.53 352.61 42.96 C 352.90 41.08 354.17 40.16 355.61 39.11 C 354.47 37.98 353.77 36.86 351.98 37.02 C 349.52 37.90 347.90 39.61 345.87 41.13 C 343.90 40.59 342.14 39.99 340.40 41.47 C 339.33 42.13 339.50 44.16 339.04 45.23 C 338.04 44.99 337.03 44.78 336.02 44.60 C 333.59 46.12 333.69 50.47 333.14 53.01 C 332.50 56.24 333.99 58.40 335.31 61.14 L 334.12 61.64 C 330.41 58.33 329.94 51.57 329.22 46.96 C 328.89 43.95 331.30 42.40 333.81 41.60 C 336.40 40.89 338.11 38.94 340.83 38.58 C 344.45 37.95 346.18 34.81 349.97 34.58 C 352.98 34.10 355.23 35.28 357.99 36.10 C 359.03 35.43 359.95 34.59 360.99 33.92 Z" fill="#231f20" />
<path d="M 319.94 41.35 C 321.14 42.79 318.06 43.55 317.17 42.90 C 316.68 41.76 319.15 40.81 319.94 41.35 Z" fill="#231f20" />
<path d="M 377.50 40.84 C 379.16 40.84 381.04 40.54 382.47 41.58 C 385.04 43.13 385.56 47.04 388.56 48.43 C 391.86 50.11 396.68 49.39 400.17 50.53 C 402.76 51.14 405.32 52.31 407.45 53.89 C 395.90 53.50 385.34 57.11 375.27 62.47 L 375.21 63.66 C 380.28 64.69 383.93 61.28 389.03 61.88 C 390.56 62.12 391.71 63.04 391.97 64.61 C 388.31 65.98 384.75 67.59 381.20 69.21 C 380.13 70.20 379.31 72.02 379.95 73.44 C 388.27 69.92 396.93 67.94 406.01 68.78 C 416.41 69.49 425.98 74.40 433.24 81.78 C 434.10 82.67 434.62 83.47 434.93 84.67 C 428.88 80.95 424.35 76.41 417.02 75.02 C 406.59 72.69 397.83 80.23 387.27 79.60 L 387.35 78.41 C 390.49 75.41 394.78 74.01 398.19 71.52 C 393.63 71.14 389.32 72.34 385.23 74.27 C 383.33 75.27 381.61 76.62 381.62 78.99 C 382.39 82.56 386.47 85.08 390.00 84.84 C 397.13 84.72 403.20 81.85 409.98 80.32 C 415.03 79.31 419.88 81.60 424.37 83.64 C 425.57 84.34 427.46 84.82 428.09 86.13 C 424.78 86.04 421.34 84.53 417.84 84.97 C 418.10 85.67 418.64 86.18 419.46 86.51 C 424.91 88.80 429.86 91.76 433.70 96.32 C 434.82 97.82 436.03 98.99 436.00 101.00 C 433.93 99.77 432.42 97.95 430.45 96.57 C 424.38 91.65 416.64 89.21 409.00 88.13 C 400.38 87.11 391.51 87.66 382.98 89.25 C 383.71 90.60 385.66 90.54 386.98 91.05 C 400.07 95.32 413.38 101.93 422.81 112.19 C 429.09 119.02 433.17 127.65 433.51 137.00 C 433.28 137.92 433.87 140.92 432.44 140.87 C 430.78 134.18 430.41 127.99 425.21 122.85 C 425.95 128.04 427.08 132.64 425.14 137.78 L 424.40 137.36 C 421.50 132.19 418.80 126.94 416.55 121.44 C 413.69 114.27 409.21 107.70 402.93 103.11 C 396.98 98.54 390.06 96.37 382.71 95.30 C 385.55 97.29 389.13 97.96 392.01 99.99 C 400.02 104.39 408.18 110.87 411.26 119.80 C 413.62 128.49 415.76 137.26 418.05 145.97 C 419.43 149.75 420.92 153.42 423.24 156.74 C 423.92 157.66 424.32 158.48 424.56 159.60 C 422.78 159.04 421.53 156.97 420.33 155.64 C 413.52 147.28 410.21 137.47 408.21 127.01 C 407.11 120.45 404.34 114.17 399.54 109.47 C 394.86 104.69 388.94 101.07 381.98 102.07 C 376.93 102.79 373.55 106.56 371.71 111.10 C 389.02 116.90 402.86 130.08 410.39 146.60 C 414.55 155.10 418.12 165.59 416.41 175.12 C 414.50 173.25 413.53 170.55 411.33 168.79 C 411.15 176.66 409.98 184.11 406.02 191.02 C 405.46 191.63 404.84 191.96 404.15 192.00 C 403.26 190.09 403.11 188.08 402.91 186.00 C 402.32 179.41 400.08 173.12 396.29 167.69 C 395.20 165.72 392.98 163.87 392.67 161.64 C 397.51 163.72 401.12 168.87 403.77 173.24 C 404.79 174.78 405.17 178.08 407.58 177.74 C 408.68 167.41 402.32 158.55 395.17 151.82 C 387.05 144.54 377.49 138.86 370.14 130.24 C 373.16 135.95 376.52 141.28 381.17 145.83 C 382.87 147.83 385.40 149.32 386.53 151.65 C 384.14 150.80 381.97 149.40 379.64 148.37 C 373.76 145.49 367.38 144.10 360.83 144.25 C 364.66 146.03 368.56 147.41 372.05 149.90 C 382.23 156.48 389.91 166.74 393.87 178.15 C 396.45 186.30 396.50 195.11 391.23 202.21 C 387.64 206.27 383.71 210.04 379.86 213.86 C 378.43 214.96 376.98 216.97 375.09 216.98 C 375.64 214.75 376.77 212.83 377.75 210.77 C 381.97 200.68 376.09 187.86 365.86 184.19 C 360.84 182.09 356.19 180.59 352.04 176.97 C 349.23 174.44 347.69 170.77 347.95 166.99 C 351.08 170.61 354.13 173.26 358.84 174.66 C 354.16 169.07 350.03 163.79 348.84 156.35 C 342.17 160.41 341.69 171.11 345.71 177.30 C 349.91 183.43 358.26 187.52 364.03 191.96 C 366.93 194.35 369.73 196.99 370.04 200.97 C 369.97 206.31 369.13 211.52 364.85 215.14 C 364.46 211.34 365.36 203.38 361.67 201.06 C 361.36 209.48 355.62 217.77 349.83 223.52 C 352.42 215.95 353.79 207.67 349.71 200.34 C 345.27 194.28 340.34 188.30 338.07 181.00 C 336.44 176.82 336.66 172.39 334.77 168.29 C 333.61 166.90 332.32 165.64 330.90 164.52 C 329.64 166.00 328.68 168.41 326.91 169.28 C 325.16 163.48 323.79 158.02 319.72 153.30 C 316.55 149.94 314.73 145.87 313.39 141.49 C 311.85 136.24 308.03 132.39 307.43 127.03 C 307.18 124.58 308.24 122.41 307.65 119.98 C 305.78 114.17 304.77 108.07 304.17 102.01 C 304.22 100.85 304.34 99.69 304.52 98.54 C 302.63 99.50 300.11 101.22 297.95 100.36 C 296.68 99.98 295.91 98.74 294.97 97.83 C 292.82 101.81 289.44 104.48 285.43 106.44 C 281.55 108.34 277.60 110.51 275.38 114.40 C 274.21 115.87 273.52 118.49 271.72 119.21 C 272.52 115.67 273.13 112.36 275.34 109.37 C 278.90 104.10 284.04 101.93 288.77 97.75 C 291.11 95.07 292.12 91.53 294.97 89.59 C 296.83 88.67 297.55 90.53 298.13 91.91 C 298.91 94.43 302.30 94.83 303.99 93.00 C 306.34 90.48 306.61 86.00 306.36 82.74 C 302.81 82.93 299.23 83.27 296.07 84.97 C 289.18 88.18 286.18 94.86 278.85 97.06 C 281.48 93.58 284.17 90.57 285.12 86.16 C 285.90 82.06 286.20 78.16 288.22 74.37 L 289.17 73.97 C 289.21 76.52 288.93 80.19 292.03 81.10 C 295.72 81.54 299.39 77.91 302.79 76.59 C 306.98 74.32 311.51 74.75 315.83 76.42 C 315.89 77.00 315.68 77.57 315.20 78.13 C 309.52 86.46 306.91 96.99 307.48 107.02 C 307.86 109.94 308.18 112.58 310.06 114.97 C 310.98 116.05 311.98 116.88 312.65 118.15 C 313.15 121.15 311.06 124.23 310.23 127.01 C 309.72 130.02 311.23 132.61 313.51 134.44 C 314.90 135.64 316.50 136.07 316.89 138.06 C 316.78 140.06 316.55 141.89 317.13 143.87 C 318.47 146.58 321.26 148.57 323.48 150.56 C 325.54 152.60 329.39 152.08 332.03 151.99 C 334.87 151.83 336.89 149.87 339.80 149.72 C 342.50 148.59 343.98 144.62 344.98 142.06 C 345.43 137.15 341.54 135.78 337.85 134.04 C 340.16 131.85 344.11 133.13 346.33 130.00 C 347.40 126.53 344.12 121.64 341.59 119.36 C 337.36 116.16 332.69 120.79 328.50 121.94 C 328.32 125.45 328.27 129.24 331.56 131.39 C 332.45 132.14 334.70 132.60 334.57 133.95 C 331.11 134.66 326.86 132.85 324.12 135.14 C 322.74 136.41 318.65 136.69 317.65 134.97 C 319.49 132.40 322.81 132.62 324.72 129.88 C 325.06 127.69 325.00 125.50 324.64 123.32 C 322.72 121.59 319.79 120.73 318.27 118.68 C 317.44 117.54 316.78 115.70 317.99 114.58 C 320.04 115.25 322.05 116.19 324.15 116.70 C 326.17 116.71 327.19 115.45 328.90 114.65 C 331.71 114.51 334.04 115.24 336.67 113.72 C 337.26 110.93 336.03 107.80 336.34 104.96 C 337.00 103.01 337.48 101.06 337.94 99.06 C 339.38 96.50 341.57 94.61 342.92 91.94 C 345.05 92.68 346.54 93.79 348.88 92.78 C 353.21 91.03 357.29 87.30 358.78 82.80 C 356.73 81.29 355.55 81.44 353.22 82.05 C 355.57 78.76 354.43 76.67 354.09 73.10 C 357.23 72.94 358.97 72.12 361.77 71.03 C 361.73 72.54 361.61 74.05 361.39 75.55 C 364.26 76.50 364.91 75.33 367.10 73.84 C 367.17 75.70 364.41 77.15 364.74 78.85 C 368.08 78.26 368.20 81.39 370.66 81.79 C 371.61 80.96 372.62 78.07 374.03 78.59 C 374.57 81.69 374.22 83.85 372.52 86.46 C 372.39 90.53 372.01 94.29 370.06 97.95 C 369.15 100.07 367.73 101.67 368.03 104.04 C 371.50 100.98 372.44 96.06 375.21 92.22 C 376.41 89.59 379.70 88.03 379.19 85.02 C 378.61 81.50 379.61 77.31 376.72 74.86 C 377.05 70.91 376.93 67.78 373.78 65.01 C 372.79 65.15 371.82 65.64 370.86 66.49 C 370.22 65.79 369.97 64.96 370.10 64.02 C 370.30 61.06 370.53 58.10 370.66 55.14 C 370.80 52.69 372.68 50.59 373.35 48.18 C 373.97 46.91 374.07 44.68 375.90 44.70 C 377.62 45.72 378.74 47.65 380.24 48.97 L 380.97 48.48 C 381.32 45.00 379.18 43.47 377.50 40.84 Z" fill="#231f20" />
<path d="M 326.29 42.79 C 325.67 46.14 322.82 48.43 322.51 52.01 C 322.57 55.84 323.22 59.66 323.41 63.49 C 325.16 64.74 327.07 65.87 328.64 67.35 C 330.05 69.31 331.09 71.55 332.52 73.50 C 334.10 75.45 336.05 77.05 337.60 79.01 C 335.98 81.20 333.93 80.22 332.32 78.69 C 329.77 75.58 327.82 71.85 325.05 68.91 C 322.85 67.62 320.64 67.18 319.63 64.51 C 318.27 59.97 318.29 54.75 319.34 50.15 C 320.29 46.61 322.52 43.54 326.29 42.79 Z" fill="#231f20" />
<path d="M 314.50 47.46 C 315.08 48.99 314.78 50.65 313.10 51.23 C 311.92 50.39 311.51 49.51 311.07 48.18 C 312.18 47.35 313.15 46.38 314.50 47.46 Z" fill="#231f20" />
<path d="M 309.89 50.00 C 310.84 51.99 310.44 53.84 310.25 55.93 C 310.53 57.91 312.64 58.81 312.95 60.95 C 310.77 61.09 310.60 58.92 308.85 58.16 C 307.59 57.48 306.26 57.41 304.88 57.10 C 305.40 55.31 304.09 53.54 304.79 52.04 C 307.71 52.72 307.79 51.20 309.89 50.00 Z" fill="#231f20" />
<path d="M 302.81 54.11 C 303.27 56.39 303.34 59.05 303.37 61.36 C 301.68 61.92 299.71 61.22 297.94 61.30 C 297.98 60.02 297.10 56.32 299.12 56.19 C 300.70 55.93 301.28 54.12 302.81 54.11 Z" fill="#231f20" />
<path d="M 397.44 58.78 C 404.20 57.77 411.12 59.18 416.44 63.59 C 417.81 64.77 419.93 66.20 420.28 68.06 C 415.41 66.06 410.33 64.04 405.00 64.05 C 402.86 63.83 400.58 64.14 398.76 62.98 C 398.47 61.50 398.08 60.16 397.44 58.78 Z" fill="#231f20" />
<path d="M 295.91 61.52 C 296.84 61.51 297.23 62.34 297.08 64.01 C 295.71 65.43 294.88 67.65 293.25 68.69 C 291.84 65.92 293.35 65.78 294.85 63.85 C 295.19 63.07 295.54 62.29 295.91 61.52 Z" fill="#231f20" />
<path d="M 304.12 64.19 C 305.43 63.66 309.72 63.62 309.77 65.64 C 307.54 66.33 304.69 67.48 304.12 64.19 Z" fill="#231f20" />
<path d="M 315.65 65.69 C 317.48 65.87 317.74 68.10 315.96 68.55 C 313.99 68.86 313.60 66.05 315.65 65.69 Z" fill="#231f20" />
<path d="M 366.68 65.44 C 367.92 66.89 367.17 69.09 365.08 68.93 C 365.00 67.15 365.10 66.38 366.68 65.44 Z" fill="#231f20" />
<path d="M 180.63 69.37 C 187.73 72.55 193.34 77.97 197.57 84.43 C 203.00 92.95 206.14 102.99 207.08 113.01 C 208.10 118.65 207.97 124.24 207.91 130.00 C 207.34 142.42 204.91 154.61 198.33 165.34 C 192.09 175.69 182.34 183.73 170.00 185.00 C 161.13 186.16 151.88 184.52 144.23 179.79 C 134.96 174.14 128.51 165.21 124.87 155.09 C 121.22 144.94 120.16 133.72 120.19 123.00 C 120.63 112.62 121.90 102.72 126.14 93.13 C 130.22 83.89 136.92 75.78 145.78 70.79 C 156.31 64.91 169.63 64.57 180.63 69.37 Z" fill="#231f20" />
<path d="M 301.48 66.44 C 301.86 68.12 302.63 71.02 300.09 71.12 C 299.32 69.31 298.84 66.78 301.48 66.44 Z" fill="#231f20" />
<path d="M 568.83 76.19 C 578.47 85.22 583.68 99.10 585.08 112.01 C 586.32 118.49 585.97 125.41 585.92 132.00 C 584.99 147.95 580.27 164.07 568.40 175.38 C 560.66 182.97 549.69 186.35 538.99 185.12 C 523.88 184.23 511.18 173.37 505.02 159.98 C 499.72 148.67 498.50 136.34 498.29 124.00 C 498.70 113.55 499.77 103.63 503.91 93.91 C 507.53 85.39 513.54 77.41 521.38 72.34 C 535.51 62.76 556.53 64.16 568.83 76.19 Z" fill="#231f20" />
<path d="M 39.04 68.12 C 50.36 68.14 61.69 68.05 73.02 68.17 C 80.26 68.91 86.71 69.49 93.46 72.53 C 103.29 76.75 110.27 86.11 112.41 96.50 C 113.99 104.57 113.99 113.89 110.49 121.49 C 107.62 127.85 102.38 132.41 96.15 135.35 L 95.86 135.92 C 103.15 150.74 110.21 165.67 117.46 180.51 C 117.94 181.43 118.33 182.38 118.62 183.36 C 107.40 183.42 96.16 183.43 84.94 183.36 C 80.68 172.47 76.69 161.40 72.54 150.46 C 71.20 146.67 69.55 143.13 68.68 139.19 L 67.90 138.91 C 67.98 153.69 67.93 168.47 67.93 183.24 C 58.35 183.58 48.61 183.35 39.01 183.36 C 39.02 144.96 38.96 106.51 39.04 68.12 Z" fill="#231f20" />
<path d="M 211.21 68.20 C 233.17 68.00 255.24 68.17 277.21 68.11 C 277.80 75.49 277.41 83.67 277.40 91.16 C 276.23 92.91 274.61 93.93 273.94 96.03 C 269.23 95.96 264.50 95.97 259.79 96.01 C 259.71 124.98 259.79 154.00 259.76 182.98 L 259.10 183.38 C 249.04 183.41 238.96 183.41 228.90 183.38 L 228.23 183.01 C 228.20 154.02 228.27 125.00 228.19 96.01 C 222.52 95.90 216.83 96.10 211.16 95.92 C 211.14 86.69 211.04 77.43 211.21 68.20 Z" fill="#231f20" />
<path d="M 318.23 68.17 C 319.93 66.97 321.20 69.70 319.03 70.13 C 317.94 69.81 317.68 69.15 318.23 68.17 Z" fill="#231f20" />
<path d="M 430.44 68.22 C 452.46 68.05 474.66 68.02 496.68 68.24 C 496.83 77.45 496.73 86.68 496.73 95.89 C 490.82 96.14 484.88 95.87 478.96 96.03 C 478.89 125.08 478.96 154.17 478.92 183.23 C 468.66 183.62 458.14 183.30 447.83 183.39 C 447.14 182.17 447.60 180.38 447.48 179.00 C 447.46 151.35 447.54 123.64 447.43 96.00 C 444.80 95.97 442.13 95.94 439.51 96.09 C 438.23 94.08 435.40 92.12 435.42 89.65 C 438.14 89.06 440.72 85.39 439.33 82.53 C 437.52 78.20 433.51 75.78 430.20 72.82 C 430.29 71.29 430.37 69.76 430.44 68.22 Z" fill="#231f20" />
<path d="M 641.12 68.13 C 641.86 69.17 641.77 70.77 641.99 72.00 C 645.02 90.37 648.44 108.52 650.56 127.04 C 650.89 122.60 651.26 118.36 652.06 113.98 C 654.62 100.05 657.34 85.94 660.00 72.01 C 660.29 70.83 660.13 69.03 661.05 68.13 C 673.71 68.10 686.38 68.11 699.05 68.13 C 700.31 71.54 699.62 75.84 700.43 79.46 C 703.24 108.64 706.09 137.83 708.93 167.00 C 709.30 172.49 710.36 177.80 709.99 183.36 C 699.29 183.43 688.58 183.42 677.87 183.37 C 677.05 176.32 677.15 169.08 676.90 162.00 C 676.25 154.68 676.05 147.34 675.94 139.98 C 675.39 133.00 675.00 126.01 674.99 119.00 C 674.93 117.29 674.98 115.39 674.41 113.76 C 673.87 120.23 672.99 126.62 671.81 133.01 C 668.52 149.67 665.48 166.70 662.14 183.31 C 653.74 183.51 645.29 183.36 636.88 183.39 C 635.75 181.60 636.22 178.89 635.52 176.83 C 633.23 162.60 630.91 148.37 628.61 134.14 C 627.25 126.99 626.90 119.67 625.46 112.58 C 626.09 116.79 625.53 120.71 625.39 125.00 C 624.85 131.67 625.06 138.34 624.47 145.00 C 623.70 151.98 624.09 159.01 623.29 166.01 C 622.60 171.61 623.36 177.95 622.17 183.39 C 611.14 183.32 600.02 183.58 589.01 183.26 C 593.49 145.08 598.06 106.49 602.37 68.32 C 615.08 67.85 628.33 68.23 641.12 68.13 Z" fill="#231f20" />
<path d="M 297.13 75.89 C 296.07 75.05 296.93 73.19 297.09 72.09 C 300.38 69.49 299.71 77.75 297.13 75.89 Z" fill="#231f20" />
<path d="M 321.27 71.25 L 322.09 70.61 C 324.76 71.14 323.93 74.39 321.50 73.44 C 320.68 72.57 320.61 71.84 321.27 71.25 Z" fill="#231f20" />
<path d="M 331.18 88.88 C 333.59 88.99 333.31 92.94 332.22 94.30 C 330.85 95.00 330.99 93.74 330.40 92.85 C 330.12 91.29 330.41 90.23 331.18 88.88 Z" fill="#231f20" />
<path d="M 312.80 91.73 C 314.08 91.57 315.47 91.87 316.97 92.64 L 318.79 91.92 C 320.27 93.15 324.57 95.24 323.60 97.58 C 320.98 98.73 319.14 98.03 317.03 100.22 C 315.53 97.52 313.79 94.65 312.80 91.73 Z" fill="#231f20" />
<path d="M 360.52 93.98 C 359.36 97.30 356.84 99.09 354.69 101.68 C 352.72 103.83 350.75 106.82 347.89 107.83 C 346.94 108.38 344.00 108.46 344.43 109.99 C 345.79 110.69 347.23 111.19 348.67 111.69 C 348.91 113.69 345.30 113.30 344.16 112.77 C 341.97 111.98 338.32 109.92 340.10 107.11 C 341.36 105.27 342.04 102.20 344.11 101.20 C 348.21 100.95 351.21 101.97 353.70 97.86 C 353.26 96.12 350.96 96.28 351.51 94.45 C 352.98 94.51 353.58 95.94 355.03 96.14 C 354.88 93.20 359.29 90.65 360.52 93.98 Z" fill="#ffffff" />
<path d="M 402.35 93.11 C 408.41 92.60 414.64 94.13 419.92 97.10 C 422.29 97.80 421.85 101.93 421.23 103.66 C 416.70 100.05 411.58 96.93 406.16 94.87 C 404.94 94.34 403.11 94.25 402.35 93.11 Z" fill="#231f20" />
<path d="M 68.12 94.22 C 72.80 94.52 77.92 94.96 80.51 99.48 C 83.95 105.78 82.48 116.06 75.79 119.81 C 73.38 121.40 70.78 121.32 68.01 121.26 C 68.05 112.26 67.84 103.21 68.12 94.22 Z" fill="rgba(255,255,255,1)" />
<path d="M 169.91 98.07 C 173.51 102.43 174.22 109.57 174.99 115.00 C 175.34 126.28 176.26 139.90 171.35 150.36 C 169.26 154.65 164.86 157.98 160.24 154.82 C 154.77 150.48 154.00 141.44 153.02 135.03 C 152.94 127.71 152.32 120.02 153.62 112.79 C 154.27 107.65 155.83 101.38 159.60 97.60 C 162.45 94.50 167.33 94.75 169.91 98.07 Z" fill="rgba(255,255,255,1)" />
<path d="M 546.46 96.59 C 549.65 98.94 550.94 103.30 551.85 106.98 C 553.86 117.05 553.63 127.65 552.90 137.85 C 551.94 143.23 550.78 150.62 546.40 154.38 C 543.17 157.07 539.33 156.38 536.72 153.28 C 532.52 148.05 531.97 140.39 531.03 134.00 C 531.02 127.07 530.40 119.84 531.72 113.01 C 532.32 107.80 533.90 101.53 537.66 97.66 C 539.86 95.15 543.73 94.69 546.46 96.59 Z" fill="rgba(255,255,255,1)" />
<path d="M 343.91 95.94 C 345.79 96.77 345.91 98.39 343.95 99.27 C 341.65 98.70 341.70 96.55 343.91 95.94 Z" fill="#ffffff" />
<path d="M 323.10 102.97 C 321.70 103.23 320.68 103.88 319.56 102.64 C 320.03 100.31 322.80 100.86 323.10 102.97 Z" fill="#231f20" />
<path d="M 426.28 101.36 C 429.93 101.10 433.06 104.40 434.59 107.41 C 436.55 111.61 437.70 116.45 437.67 121.08 C 435.84 120.74 435.00 118.60 433.58 117.42 C 429.14 112.91 427.55 107.39 426.28 101.36 Z" fill="#231f20" />
<path d="M 295.78 104.24 C 297.82 108.10 296.67 113.96 294.73 117.73 C 291.43 123.72 286.17 129.15 279.76 131.75 C 276.70 133.29 275.03 135.74 272.89 138.11 C 272.47 133.97 272.63 129.83 273.76 125.81 C 275.89 117.55 281.83 111.07 289.48 107.46 C 291.61 106.60 293.39 103.45 295.78 104.24 Z" fill="#231f20" />
<path d="M 320.43 106.49 C 319.67 107.80 319.37 111.56 317.31 110.68 C 315.68 107.98 318.39 107.14 320.43 106.49 Z" fill="#231f20" />
<path d="M 388.50 109.41 C 395.46 111.21 398.75 117.62 399.65 124.28 C 394.70 118.85 389.17 113.89 382.86 110.09 C 382.71 108.03 387.32 109.00 388.50 109.41 Z" fill="#231f20" />
<path d="M 301.33 112.42 C 301.62 117.01 302.56 121.58 304.37 125.82 C 305.34 128.05 305.38 130.25 304.25 132.43 C 300.31 128.99 296.02 128.39 291.79 131.77 C 284.64 137.88 280.48 148.06 277.30 156.71 C 276.21 156.83 276.70 154.69 276.43 154.02 C 275.27 143.49 281.56 134.66 289.68 128.70 C 294.87 124.84 297.75 119.54 298.37 113.11 C 298.53 111.17 300.50 110.45 301.33 112.42 Z" fill="#231f20" />
<path d="M 290.73 113.10 C 290.10 119.25 285.39 123.23 279.86 125.16 C 280.58 119.11 285.01 114.75 290.73 113.10 Z" fill="#ffffff" />
<path d="M 365.43 114.78 C 365.54 116.37 365.12 118.01 364.63 119.51 C 362.53 125.53 359.82 131.39 356.63 136.90 C 355.51 136.70 355.05 136.20 355.27 135.39 C 358.17 130.64 360.99 125.52 361.99 119.99 C 362.47 118.21 363.33 115.17 365.43 114.78 Z" fill="#ffffff" />
<path d="M 369.73 115.90 C 377.71 115.94 385.91 120.31 391.20 126.13 C 386.79 123.65 382.16 121.86 377.04 121.78 L 375.39 122.94 C 375.68 125.65 380.38 126.73 382.49 127.67 C 392.12 130.64 400.40 136.98 405.01 146.03 C 407.38 152.11 410.46 158.71 411.02 165.25 C 408.65 163.74 407.69 160.29 405.80 158.18 C 401.79 152.23 396.36 148.10 391.06 143.44 C 394.70 144.00 397.92 145.39 401.26 146.87 C 399.03 141.95 393.25 138.54 388.55 136.29 C 383.58 133.58 377.74 133.01 373.42 129.55 C 369.76 125.72 369.49 120.93 369.73 115.90 Z" fill="#ffffff" />
<path d="M 298.99 133.28 C 301.04 133.32 302.09 135.09 302.10 136.97 C 302.48 141.29 301.24 145.84 299.66 149.84 C 298.08 153.77 295.30 156.45 292.34 159.35 C 288.55 163.03 286.17 167.67 284.63 172.67 L 284.15 173.05 C 280.92 161.86 282.17 149.60 288.99 139.99 C 291.09 136.54 294.97 133.80 298.99 133.28 Z" fill="#231f20" />
<path d="M 306.14 135.90 C 306.42 143.13 307.97 149.89 313.03 155.32 C 312.57 157.73 311.27 159.54 309.33 161.00 C 308.75 159.11 308.68 157.43 306.96 156.12 C 296.80 164.61 292.13 178.16 294.26 191.18 C 290.17 184.00 289.21 174.90 292.19 167.14 C 294.19 161.83 297.64 157.54 301.73 153.68 C 305.67 148.54 302.39 143.91 304.50 138.52 C 304.96 137.58 305.51 136.70 306.14 135.90 Z" fill="#231f20" />
<path d="M 354.45 138.28 C 354.17 139.76 354.49 141.14 353.11 142.11 C 352.27 142.77 351.72 143.71 351.47 144.90 C 349.68 144.89 350.54 143.56 350.30 142.32 C 351.36 141.22 352.74 137.91 354.45 138.28 Z" fill="#ffffff" />
<path d="M 296.49 141.45 C 297.22 144.29 295.47 147.65 294.02 150.02 C 292.73 151.88 291.15 154.49 288.90 155.22 C 289.13 151.54 290.87 147.70 292.31 144.32 C 293.25 143.16 294.74 140.38 296.49 141.45 Z" fill="#ffffff" />
<path d="M 362.62 150.86 C 370.37 154.17 377.17 160.15 382.08 166.95 C 386.72 173.57 390.86 181.82 391.31 190.00 C 391.22 192.85 390.35 195.02 387.03 194.09 C 372.07 186.90 361.14 171.53 356.51 155.86 C 362.43 162.91 367.93 171.18 375.34 176.71 C 376.68 177.54 379.31 179.00 380.30 176.99 C 380.67 174.35 378.76 171.71 377.52 169.48 C 373.15 162.86 367.55 157.05 362.62 150.86 Z" fill="#ffffff" />
<path d="M 316.60 161.37 C 318.68 165.89 317.45 172.17 316.35 176.84 C 313.59 186.32 307.83 195.08 301.08 202.21 C 299.30 196.40 298.10 190.10 298.59 184.00 C 299.28 175.40 304.62 167.48 310.94 161.89 C 312.59 160.62 315.04 159.09 316.60 161.37 Z" fill="#231f20" />
<path d="M 323.72 168.81 C 322.27 175.94 321.89 183.61 326.37 189.78 C 325.98 186.46 326.19 183.27 326.68 179.98 C 328.08 176.62 329.56 172.07 332.04 169.47 C 332.72 171.21 332.40 173.16 332.84 175.01 C 334.87 186.23 341.92 197.25 343.48 208.98 C 344.33 216.75 342.35 224.41 337.84 230.72 C 338.32 225.16 338.31 219.56 338.53 213.99 C 338.13 209.48 338.21 204.34 335.46 200.53 C 334.10 198.57 333.64 196.02 332.10 194.24 C 327.31 203.00 329.61 211.29 331.81 220.34 C 327.68 216.81 325.98 210.08 324.64 205.00 C 323.45 201.13 323.72 196.67 321.91 193.10 C 321.25 193.01 320.70 193.39 320.24 194.24 C 317.04 201.31 318.03 208.00 318.89 215.40 C 315.49 209.27 313.83 202.01 314.07 195.01 C 314.48 185.44 318.11 176.49 323.72 168.81 Z" fill="#231f20" />
<path d="M 311.02 170.40 C 313.24 170.62 312.30 174.58 312.00 176.02 C 310.78 179.95 308.45 185.22 304.84 187.40 C 304.13 185.29 305.30 182.65 305.73 180.52 C 306.70 176.61 307.37 172.77 311.02 170.40 Z" fill="#ffffff" />
<path d="M 309.37 200.01 C 309.76 202.39 310.10 204.78 310.58 207.15 C 307.98 207.21 305.39 207.18 302.81 206.92 C 305.43 204.98 307.20 202.39 309.37 200.01 Z" fill="rgba(255,255,255,0)" />
<path d="M 272.00 206.95 C 281.04 206.75 290.10 207.13 299.15 206.91 C 300.37 206.95 301.59 206.95 302.81 206.92 C 305.39 207.18 307.98 207.21 310.58 207.15 C 312.07 211.55 313.47 217.41 317.01 220.60 C 285.73 220.41 255.56 222.44 224.00 222.78 C 190.97 223.99 158.00 225.31 125.00 227.11 C 115.85 226.72 106.82 227.79 97.85 229.51 C 91.25 230.18 84.59 230.39 78.00 231.09 C 74.70 231.39 72.25 233.67 69.21 235.28 L 69.19 236.56 C 71.21 236.76 73.24 236.87 75.26 237.13 C 72.97 238.38 70.99 239.21 69.68 241.63 C 68.33 244.28 65.77 243.02 63.53 244.57 C 61.65 245.89 58.83 245.63 56.62 245.88 C 55.76 244.36 53.59 243.07 54.35 241.16 C 55.11 238.73 54.93 236.40 57.84 235.63 C 59.29 232.73 61.04 230.19 64.08 228.77 C 64.36 228.01 64.54 227.20 64.62 226.34 C 67.75 223.70 71.25 223.48 74.78 221.76 C 78.33 220.28 80.93 217.93 85.00 218.09 C 93.02 217.79 100.20 213.17 108.00 214.09 C 127.00 213.05 146.00 212.08 165.01 211.27 C 200.65 209.31 236.32 207.87 272.00 206.95 Z" fill="#1aa249" />
<path d="M 391.76 208.68 C 428.53 209.08 465.26 210.56 502.01 211.74 C 526.20 212.87 550.38 213.88 574.53 215.67 C 595.18 217.07 615.89 217.87 636.51 219.71 C 640.05 219.96 643.46 220.93 647.00 221.12 C 651.21 221.59 654.92 221.21 658.80 223.19 C 660.18 223.47 659.85 225.85 660.21 226.91 C 669.97 228.79 680.00 229.83 689.94 230.06 C 691.35 231.94 693.60 232.08 692.79 234.88 C 656.51 232.45 620.36 228.67 584.00 227.40 C 557.69 225.64 531.36 224.55 505.00 224.01 C 497.94 224.01 491.06 222.66 484.00 222.94 C 455.84 221.50 427.66 221.04 399.48 220.25 C 392.98 220.10 386.46 220.26 379.96 220.07 C 384.13 216.43 387.91 212.64 391.76 208.68 Z" fill="#1aa249" />
<path d="M 370.43 217.11 C 370.78 218.15 371.17 219.17 371.59 220.18 C 367.42 220.01 363.24 220.09 359.07 220.08 C 359.52 219.36 359.96 218.64 360.39 217.91 C 362.52 219.32 364.41 220.65 367.01 219.28 C 368.14 218.82 369.26 217.16 370.43 217.11 Z" fill="#1aa249" />
<path d="M 323.97 218.16 C 324.79 218.53 325.12 219.93 325.69 220.65 C 324.16 219.85 322.52 220.37 320.97 220.79 C 322.49 220.32 322.87 219.06 323.97 218.16 Z" fill="#1aa249" />
<path d="M 359.07 220.08 C 363.24 220.09 367.42 220.01 371.59 220.18 C 374.94 222.54 376.65 222.17 379.96 220.07 C 386.46 220.26 392.98 220.10 399.48 220.25 C 427.66 221.04 455.84 221.50 484.00 222.94 C 491.06 222.66 497.94 224.01 505.00 224.01 C 531.36 224.55 557.69 225.64 584.00 227.40 C 620.36 228.67 656.51 232.45 692.79 234.88 C 696.55 235.42 700.39 235.31 704.13 235.96 C 705.66 238.10 703.06 242.74 700.94 243.94 C 695.36 244.05 689.82 242.98 684.22 243.29 C 685.09 243.57 685.97 243.85 686.84 244.14 C 687.01 245.28 687.17 246.42 687.32 247.56 C 688.88 247.80 690.45 247.99 692.00 248.24 C 692.12 249.37 692.03 250.52 691.73 251.69 C 687.48 254.15 683.65 252.18 679.00 253.17 C 673.33 252.87 667.68 252.51 662.00 252.38 C 659.19 252.40 656.70 251.86 654.08 253.13 C 651.89 254.06 649.57 253.88 647.12 254.13 C 646.31 255.34 645.44 255.86 646.35 257.35 C 653.17 257.91 660.07 258.11 666.85 258.99 L 666.88 259.79 C 664.27 259.99 661.57 260.00 659.00 260.52 C 661.67 260.88 664.31 260.58 666.97 261.12 C 666.21 263.72 664.81 265.79 663.50 268.13 C 662.40 269.10 661.69 270.10 660.03 269.69 C 626.39 266.99 592.69 265.53 559.00 263.60 C 535.00 262.69 511.00 261.85 487.00 260.98 C 462.67 260.50 438.33 260.10 414.00 259.65 C 388.33 259.47 362.67 259.47 337.00 259.61 C 314.00 260.01 291.00 260.36 268.00 260.78 C 245.33 261.54 222.65 262.27 199.98 263.08 C 168.64 264.74 137.30 266.04 106.00 268.33 C 104.65 268.57 103.34 268.23 102.07 267.31 C 94.01 267.55 85.94 267.96 77.88 268.30 C 75.01 266.37 72.43 267.77 69.18 267.85 C 63.18 267.97 56.70 269.96 51.00 268.20 C 49.30 267.87 47.14 268.46 46.04 266.94 C 44.16 264.85 45.77 262.29 45.15 260.08 C 43.87 258.40 41.75 257.51 42.98 255.05 C 44.35 251.87 47.87 252.01 49.38 249.33 C 50.74 246.75 54.12 246.66 56.62 245.88 C 58.83 245.63 61.65 245.89 63.53 244.57 C 65.77 243.02 68.33 244.28 69.68 241.63 C 70.99 239.21 72.97 238.38 75.26 237.13 C 73.24 236.87 71.21 236.76 69.19 236.56 L 69.21 235.28 C 72.25 233.67 74.70 231.39 78.00 231.09 C 84.59 230.39 91.25 230.18 97.85 229.51 C 106.82 227.79 115.85 226.72 125.00 227.11 C 158.00 225.31 190.97 223.99 224.00 222.78 C 255.56 222.44 285.73 220.41 317.01 220.60 C 318.41 221.09 319.73 221.15 320.97 220.79 C 322.52 220.37 324.16 219.85 325.69 220.65 C 327.78 223.44 329.64 225.47 333.44 225.17 C 333.64 227.96 332.11 231.63 334.08 233.89 C 335.88 236.18 339.20 236.22 341.21 234.19 C 342.96 232.04 344.38 229.65 345.36 227.06 C 347.64 228.35 349.40 229.62 352.01 228.07 C 354.76 225.96 356.84 222.72 359.07 220.08 Z" fill="#f4ed33" />
<path d="M 136.98 230.02 C 140.82 228.65 145.25 230.28 147.02 233.99 C 146.06 234.59 144.49 236.02 143.38 235.91 C 141.69 232.75 136.53 233.12 136.05 236.93 C 137.11 240.13 142.08 240.32 144.55 242.43 C 149.97 245.81 148.47 254.78 142.57 256.74 C 137.03 258.99 131.17 255.70 130.58 249.68 C 132.00 249.27 133.42 248.95 134.89 248.77 C 135.25 250.15 135.48 251.39 136.61 252.37 C 138.51 253.83 142.10 253.38 142.97 250.95 C 143.84 248.98 143.36 246.71 141.42 245.63 C 138.43 243.84 134.84 243.44 132.71 240.28 C 130.16 236.40 132.58 231.10 136.98 230.02 Z" fill="#231f20" />
<path d="M 188.05 230.07 C 189.49 229.99 190.94 229.97 192.39 230.00 C 192.61 235.67 192.39 241.36 192.50 247.03 C 192.79 249.09 192.82 251.06 194.82 252.23 C 197.89 254.39 202.94 252.85 203.33 248.84 C 204.02 242.67 203.35 236.24 203.69 230.01 C 205.12 229.98 206.56 229.98 207.99 230.01 C 208.02 236.36 208.02 242.71 207.99 249.06 C 206.86 255.87 199.73 259.26 193.55 256.44 C 189.94 254.78 187.85 250.91 187.99 247.01 C 188.04 241.36 187.93 235.71 188.05 230.07 Z" fill="#231f20" />
<path d="M 249.80 229.97 L 251.76 230.08 C 257.58 235.98 263.19 242.12 268.98 248.07 C 269.06 242.06 268.93 236.05 269.03 230.05 C 270.47 229.99 271.91 229.97 273.36 230.01 C 273.51 239.01 273.51 248.05 273.36 257.05 C 272.18 257.17 271.33 256.89 270.79 256.21 C 265.25 250.40 259.79 244.48 254.07 238.85 C 254.16 244.89 254.15 250.95 254.09 256.99 C 252.66 257.02 251.23 257.02 249.79 256.99 C 249.71 247.99 249.69 238.97 249.80 229.97 Z" fill="#231f20" />
<path d="M 330.32 234.02 C 329.22 234.77 328.08 235.45 326.92 236.09 C 324.97 232.83 320.00 232.88 319.32 237.05 C 320.85 240.30 324.86 240.11 327.66 242.30 C 331.07 244.18 331.97 248.84 330.46 252.21 C 328.43 258.36 318.51 259.31 315.29 253.72 C 314.85 252.58 313.26 250.60 314.33 249.49 C 315.58 249.18 316.86 248.95 318.16 248.80 C 318.79 251.06 319.32 252.84 321.98 253.18 C 325.44 253.82 327.97 249.77 326.08 246.94 C 324.53 244.68 320.65 244.21 318.43 242.59 C 315.39 240.87 313.89 236.86 315.73 233.75 C 318.58 228.05 327.62 228.18 330.32 234.02 Z" fill="#231f20" />
<path d="M 371.33 230.13 C 374.83 229.96 378.79 229.63 382.12 230.87 C 387.17 233.08 388.17 240.47 384.05 244.07 C 381.65 246.12 378.79 246.14 375.82 246.29 C 375.78 249.83 375.89 253.38 375.77 256.92 C 374.30 257.04 372.79 257.09 371.32 256.88 C 371.29 247.97 371.27 239.05 371.33 230.13 Z" fill="#231f20" />
<path d="M 426.07 230.08 C 427.51 229.99 428.95 229.96 430.40 230.00 C 430.64 237.57 430.42 245.17 430.51 252.74 C 433.08 252.84 435.65 252.72 438.22 252.80 C 438.27 254.21 438.26 255.60 438.20 256.99 C 434.15 256.97 430.10 257.07 426.06 256.94 C 425.96 247.99 425.95 239.02 426.07 230.08 Z" fill="#231f20" />
<path d="M 488.23 230.06 C 489.51 229.67 490.31 230.11 490.62 231.37 C 494.40 239.91 498.37 248.38 502.03 256.97 C 500.43 257.02 498.84 257.04 497.25 256.96 C 496.19 254.88 495.54 252.47 494.25 250.54 C 490.73 250.54 487.21 250.58 483.70 250.51 C 482.35 252.34 481.63 254.72 480.62 256.76 C 479.14 257.27 477.32 256.91 475.77 256.98 C 479.77 247.95 484.04 239.01 488.23 230.06 Z" fill="#231f20" />
<path d="M 555.85 234.00 C 554.72 234.76 553.58 235.46 552.38 236.11 C 551.09 234.56 550.24 233.47 547.99 233.88 C 545.35 233.91 543.65 237.26 546.22 238.84 C 549.15 240.75 552.54 241.03 555.04 243.96 C 558.46 248.30 556.23 255.33 550.91 256.92 C 545.48 258.80 539.80 255.48 539.40 249.64 C 540.86 249.25 542.30 248.93 543.80 248.79 C 543.88 251.78 546.02 253.74 549.02 253.07 C 552.17 252.79 553.27 247.90 550.84 246.15 C 548.14 243.96 544.53 243.93 542.06 241.00 C 539.92 238.67 539.99 235.32 541.73 232.76 C 545.31 228.06 553.17 228.57 555.85 234.00 Z" fill="#231f20" />
<path d="M 596.90 230.01 C 598.33 229.98 599.76 229.98 601.20 230.01 C 601.35 233.46 601.16 236.92 601.30 240.37 C 604.77 240.41 608.24 240.38 611.71 240.40 L 612.15 239.97 C 612.26 236.69 612.09 233.39 612.23 230.10 C 613.71 229.95 615.19 229.92 616.67 230.12 C 616.73 239.04 616.71 247.97 616.68 256.89 C 615.22 257.08 613.70 257.04 612.23 256.91 C 612.08 252.83 612.28 248.75 612.13 244.67 C 608.64 244.74 604.61 244.33 601.24 244.87 C 601.23 248.91 601.32 252.96 601.20 256.99 C 599.77 257.02 598.33 257.02 596.90 256.99 C 596.84 248.00 596.84 239.01 596.90 230.01 Z" fill="#231f20" />
<path d="M 375.79 234.50 C 378.56 233.33 383.31 235.29 382.13 239.02 C 381.72 242.05 378.21 242.12 375.84 242.00 C 375.79 239.50 375.84 237.00 375.79 234.50 Z" fill="#f4ed33" />
<path d="M 488.88 238.76 L 489.00 238.59 L 489.17 238.38 C 490.26 241.02 491.52 243.60 492.52 246.28 C 490.15 246.32 487.77 246.31 485.39 246.28 C 486.49 243.76 487.57 241.18 488.88 238.76 Z" fill="#f4ed33" />
<path d="M 337.00 259.61 C 362.67 259.47 388.33 259.47 414.00 259.65 C 438.33 260.10 462.67 260.50 487.00 260.98 C 511.00 261.85 535.00 262.69 559.00 263.60 C 592.69 265.53 626.39 266.99 660.03 269.69 C 661.69 270.10 662.40 269.10 663.50 268.13 C 668.28 268.97 673.21 269.06 677.97 269.98 C 678.84 274.53 674.77 273.39 671.95 275.01 C 668.69 275.35 665.28 275.03 662.01 274.80 C 660.60 274.84 658.27 274.05 657.23 275.21 C 657.40 276.13 657.58 277.04 657.79 277.94 C 657.03 279.14 656.72 280.08 655.03 279.78 C 637.08 277.74 618.95 277.14 600.91 276.32 L 599.77 276.76 C 599.68 278.55 601.62 278.78 602.98 278.90 C 616.52 280.28 630.18 280.66 643.66 282.51 C 644.64 284.09 643.89 285.36 642.03 285.19 C 621.14 283.18 599.97 282.18 579.00 280.88 C 524.31 278.25 469.72 275.31 414.97 273.90 C 413.70 273.77 412.80 274.23 412.28 275.27 C 410.87 277.31 408.78 279.84 406.01 279.28 C 336.88 274.47 266.27 275.39 196.98 276.58 C 179.32 277.83 161.64 279.26 143.98 280.59 C 135.76 281.52 127.65 280.97 119.49 282.64 C 115.82 283.60 111.98 281.56 108.17 282.22 C 102.98 283.12 98.10 285.11 92.84 285.80 C 88.26 286.46 82.68 288.21 78.20 286.70 C 74.08 285.14 73.30 280.98 71.41 277.53 C 69.08 274.80 69.08 271.26 69.18 267.85 C 72.43 267.77 75.01 266.37 77.88 268.30 C 85.94 267.96 94.01 267.55 102.07 267.31 C 103.34 268.23 104.65 268.57 106.00 268.33 C 137.30 266.04 168.64 264.74 199.98 263.08 C 222.65 262.27 245.33 261.54 268.00 260.78 C 291.00 260.36 314.00 260.01 337.00 259.61 Z" fill="#b51f23" />
</svg>