<svg viewBox="0 0 43 42" xmlns="http://www.w3.org/2000/svg" style="width: 100%; height: 100%;">
    <path
        d="M42.6692 19.216C42.0308 18.8805 40.6986 19.2173 39.7989 18.9243C39.1949 18.7277 38.3787 18.2502 37.9079 17.9575C37.7095 17.8342 37.4593 17.8575 37.2757 18.0022C36.9626 18.2488 36.5051 18.3386 36.0508 18.214L34.6641 17.8048L34.1276 17.6975C34.1521 17.6547 34.5122 17.6984 34.6069 17.5251C34.8084 17.1561 34.0128 16.0442 33.3958 15.8476C32.9183 15.6953 32.7713 16.1527 32.5779 16.0138C32.2446 15.7748 32.2325 15.0296 31.3654 15.7319C31.0277 15.2311 30.8191 15.1704 30.3151 15.5027C30.0542 15.6747 29.9323 15.9651 29.6459 16.0897C29.3404 16.2229 28.9906 16.7223 28.8789 17.0417C28.8288 17.1851 28.777 17.1507 28.781 16.96C28.7873 16.6763 29.3077 15.6604 29.4444 15.5197C29.6263 15.3325 29.8693 14.15 29.8264 13.685C29.809 13.4947 29.8675 13.3133 30.0846 13.1641C30.7257 12.7231 30.1628 12.6365 30.2892 12.1674C30.3754 11.8471 30.5162 11.437 30.4679 11.1703C30.3817 10.6909 30.1561 10.8509 30.0462 10.7964C29.8559 10.7017 29.6415 10.372 29.6035 9.95963C29.5999 9.91987 30.6198 10.2858 31.7411 9.78719C32.9906 9.2319 32.2276 5.34217 29.9564 6.86286C29.9001 6.90038 29.3386 7.44451 29.3386 7.44451C29.3386 7.44451 29.7884 6.84365 29.7884 6.22447C29.7884 5.48602 29.6227 4.36873 28.9392 3.04862C28.6354 2.46161 28.2293 1.83439 27.6897 1.18261C27.0937 0.462468 26.2087 0.332914 25.6195 0.377141C25.6195 0.377141 25.0923 0.426729 24.8757 0.643843C24.8757 0.643843 24.8748 0.64429 24.8748 0.644736C24.8198 0.684496 24.68 0.464702 24.8627 0.118481C24.407 0.339169 24.4142 1.07271 24.4446 1.42474C24.4151 1.39704 24.3861 1.36845 24.3548 1.34254C24.1359 0.879273 23.5587 -0.0106257 22.369 9.60109e-05C21.015 0.0121579 19.2356 1.15848 18.545 3.23134C17.8682 4.28966 16.7723 5.64237 15.2731 6.35179C15.1641 6.40361 15.1949 6.56846 15.3151 6.57784C15.8655 6.62117 16.8313 6.56444 17.9388 6.30533C16.2653 8.27946 16.2867 10.9027 15.5416 13.9222C15.4857 14.1491 15.3897 14.1724 15.4075 13.8797C15.4536 13.1377 15.5885 10.032 15.9195 8.6364C15.9369 8.56314 15.9186 8.37104 15.8034 8.28482C15.567 8.10746 14.6807 7.7608 13.9512 7.27117C11.6831 5.75048 7.46369 1.61996 5.50609 9.49369C3.13213 19.0413 13.8601 17.1217 14.007 17.2066C14.1419 17.2843 14.1893 17.4563 14.1134 17.5917C14.0249 17.7498 13.932 17.9048 13.8346 18.0567C11.7725 21.2629 6.68815 22.6206 5.89073 22.8515C5.68255 22.9119 5.69908 23.1978 5.91306 23.2335C8.59259 23.6776 11.3333 22.5397 13.7376 21.5739C13.7649 21.5632 16.1563 20.5232 17.4451 19.2205C17.4625 19.2066 17.4795 19.1937 17.4974 19.1794C17.5715 19.1191 17.6761 19.2066 17.626 19.2884C16.9483 20.4003 15.8319 21.2375 15.1225 21.6932C15.01 21.7651 15.085 21.9398 15.215 21.9076C16.3868 21.6159 17.9374 20.9887 20.4137 19.354C20.4936 19.3013 20.587 19.4023 20.5271 19.4773C17.9325 22.7309 14.2711 24.7484 11.8757 25.5471C10.5855 25.9774 11.6429 26.5679 11.4696 26.7319C9.66341 28.442 9.80146 31.2935 12.9 32.7168C12.1205 32.8575 11.4052 32.4148 11.2078 32.2996C11.0943 32.2335 10.9496 32.4282 10.875 32.5368C10.5707 32.9782 9.80369 34.0168 9.63795 34.2652C9.48338 34.4966 9.33953 34.4484 9.09025 34.2933C8.79719 34.1106 8.48761 33.9552 8.16372 33.8359C7.55705 33.613 7.1876 33.3521 7.1876 32.6074C7.1876 30.0945 4.99234 30.5591 4.74306 32.0056C4.65148 32.5381 4.76004 35.4361 1.09412 37.4169L1.07893 37.4263C0.082264 38.1487 -0.192032 38.8746 0.125151 40.0093C0.325289 40.725 1.12182 41.1315 1.8022 40.8313C2.01261 40.7384 2.21007 40.6169 2.40887 40.4981C2.50491 40.4404 2.63134 40.4726 2.69165 40.5673C3.30189 41.522 4.29052 41.6493 5.13798 40.8782C5.2032 40.8188 5.2997 40.8059 5.37475 40.8532C5.67451 41.0417 5.95059 41.2294 6.2709 41.3522C7.22647 41.7186 8.283 41.1829 8.62654 40.2189C9.0228 39.1074 8.59259 38.4324 7.44046 38.36C7.17867 38.3435 6.91465 38.3578 6.54743 38.3578C7.29973 37.6055 7.23764 36.2795 7.17599 35.5657C7.16393 35.4236 7.32609 35.3347 7.44001 35.4209C7.98369 35.8319 8.08063 35.9034 8.6051 36.2572C9.84702 37.0953 10.1941 37.0073 11.0733 35.8087C11.4446 35.303 13.8529 33.2618 14.1509 33.0706C15.5353 32.5278 19.1784 34.5176 20.0728 34.9014C20.7393 35.1868 21.9312 34.8924 23.0722 34.1508C24.5723 34.808 27.2738 36.2626 27.2738 38.7263C27.2738 39.6122 26.9351 40.9439 28.3209 41.3201C30.8499 42.0062 30.3804 38.9689 30.7784 37.9928C31.2493 36.838 33.2506 35.4584 33.8895 33.7367C34.3125 33.5969 34.6297 33.2471 34.6596 32.8312C34.6775 32.5837 34.5868 32.3585 34.4287 32.1821C34.686 31.9667 34.8781 31.6612 34.9451 31.3114C35.0483 30.7726 34.8276 30.2826 34.4247 30.0427C34.5332 29.7156 34.5033 29.3167 34.3076 28.9276C34.1544 28.6234 33.9234 28.3736 33.6594 28.1972C33.7371 27.8166 33.7076 27.3832 33.4753 26.9115C33.0228 25.9908 30.9897 25.5119 30.1311 26.4585C29.3984 27.2662 29.6955 28.9196 30.2915 29.6531C28.5385 30.3978 28.4335 31.8122 28.3392 32.8928C28.2664 33.7278 28.5648 34.5694 28.5943 35.2293C28.6023 35.4138 28.3616 35.4942 28.2566 35.3418C27.4743 34.2067 25.7982 33.0729 24.8395 32.5019C25.1763 32.0507 25.2724 31.8957 25.4743 31.3444C25.5748 31.071 24.919 30.6739 25.4949 30.3205C27.4408 29.1255 28.97 25.8487 28.2874 22.0523C27.9537 20.1975 29.9171 19.1481 31.394 18.8912L35.4513 20.0617C35.8649 20.2185 36.1669 20.529 36.2902 20.8837C36.3648 21.0986 36.5435 21.2594 36.7705 21.2768C37.3258 21.3201 38.3072 21.4206 38.9224 21.6194C39.8172 21.9125 40.771 22.9597 41.4893 22.9212C42.1452 22.8859 43.5318 19.6717 42.6692 19.2178V19.216ZM30.6958 12.1093L32.9728 12.188C33.017 12.1893 33.0576 12.2058 33.0907 12.2331C33.1465 12.2782 33.1818 12.3524 33.1801 12.435L33.1783 12.5109C33.176 12.5985 33.1416 12.6758 33.088 12.7289C33.0344 12.7821 32.962 12.8116 32.8843 12.8036L30.6739 12.5324C30.5783 12.5208 30.505 12.4301 30.5037 12.322C30.5023 12.2018 30.5894 12.1058 30.6962 12.1093H30.6958Z">
    </path>
</svg>