<svg version="1.1" xmlns="http://www.w3.org/2000/svg" xmlns:xlink="http://www.w3.org/1999/xlink"  viewBox="0 0 141.7 125.8" style="width: 100%; height: 100%" xml:space="preserve">
<g>
	<path d="M4.2,110.7L0,78.7h8l2.1,18.5h0.2l2.8-10.8h4.8l3,10.8H21l2.5-18.5h7.9l-4.7,32h-8.1l-3.1-11.4l-3.1,11.4H4.2z"></path>
	<path d="M83.9,78.7l4.2,32h-8l-2.1-18.5h-0.2L75.1,103h-4.8l-3-10.8h-0.2l-2.5,18.5h-7.9l4.7-32h8.1l3.1,11.4l3.1-11.4H83.9z"></path>
	<path d="M31.9,94.5c0-5.4,1.1-9.5,3.2-12.2c2.2-2.7,5.1-4.1,8.8-4.1c3.7,0,6.6,1.4,8.8,4.1C54.9,85,56,89.1,56,94.5
		c0,5.4-1.1,9.6-3.2,12.5c-2.1,2.9-5.1,4.3-8.8,4.3c-3.7,0-6.7-1.4-8.8-4.3C33,104.1,31.9,99.9,31.9,94.5z M44,85.5
		c-2.7,0-4,2.9-4,8.7c0,6.5,1.3,9.8,4,9.8c2.7,0,4-3.2,4-9.8C48,88.4,46.7,85.5,44,85.5z"></path>
	<path d="M90.1,110.7l7.2-32h11.1l7.8,32h-8.3l-2.1-9.8h-5.8l-2.1,9.8H90.1z M102.7,84.9l-1.8,9.9h3.7l-1.7-9.9H102.7z"></path>
	<path d="M119,110.7v-32h8.8c3.6,0,6.8,1.2,9.5,3.6c1.3,1.2,2.4,2.8,3.2,4.9c0.8,2.1,1.2,4.5,1.2,7.4c0,2.8-0.4,5.3-1.1,7.5
		c-0.8,2.1-1.9,3.8-3.2,5.1c-2.6,2.3-5.7,3.5-9.4,3.5H119z M126.8,103.8h1.2c3.7,0,5.7-3.2,5.7-9.3c0-6.2-2.2-9-5.8-9h-1.1V103.8z"></path>
	<path class="lion" d="M122.5,31.7c-0.2,0.4-0.5,0.8-0.8,1.3c-0.4-0.8-0.7-1.5-1.1-2.3c0.3,0,0.6,0,0.9,0.1c0.2,0,0.5,0.2,0.7,0.2
		C122.7,31,122.7,31.3,122.5,31.7 M118,38.7c-1.4,0.2-2.8,0.5-4.2,0.7c-1.3,0.2-2.4-0.1-3.4-1c-0.1-0.1-0.1-0.1-0.1-0.2
		c0,0,0-0.1,0,0c1.4,0.1,2.8,0.3,4.2,0.4c1,0.1,1.8-0.3,2.6-0.9c0.3-0.2,0.6-0.3,0.8,0c0.2,0.3,0.3,0.6,0.5,1
		C118.2,38.5,118,38.7,118,38.7 M109.2,26.5c-0.2-0.4-0.4-0.8-0.6-1.2c0.8-0.4,2.3,0.6,2.4,1.7c-0.3,0.1-0.6,0.1-0.9,0.1
		C109.7,27.2,109.4,26.9,109.2,26.5 M105.9,18.4c1.2,0.1,2,1,3,1.6C108.1,20.3,108.1,20.3,105.9,18.4 M104.9,20.3
		c-0.2,0-0.5,0-0.7-0.1c-0.7-0.4-1.4-0.9-2.1-1.4c-0.4-0.3-0.7-0.6-1-1c-2.4-2.4-6.2-1.9-8,1.1c-0.4,0.7-0.7,1.5-1,2.2
		c-0.1,0.2-0.1,0.3-0.2,0.5c-0.7-0.8-0.6-2.3,0.1-3.2c0.6-0.8,1.3-1.4,2.2-1.8c1.9-0.8,3.8-1.2,5.8-0.6c0.7,0.2,1.4,0.7,2,1.2
		c1,0.9,2,1.8,2.9,2.8C104.9,20.1,104.9,20.1,104.9,20.3 M102.3,20.6c-1-0.4-2-0.9-2.9-1.5c1.5-0.3,2.6,0.4,3.8,1.1
		c0,0.1,0,0.2,0,0.2C102.8,20.5,102.5,20.7,102.3,20.6 M94.5,21.9c1-1.7,5.9-1.3,7.7,0.9C99.6,22.7,97.2,21.6,94.5,21.9 M99.5,36.4
		c0.7,0.6,0.6,2.2-0.1,3.3C98.6,38.5,98.7,36.9,99.5,36.4 M99.7,42.9c-0.4-0.7-0.4-1.2-0.2-1.7c0.1-0.1,0.4-0.3,0.4-0.2
		c0.1,0.1,0.3,0.3,0.3,0.5C100.2,41.8,100,42.3,99.7,42.9 M93.9,18.5c1.1-0.9,2.3-1.3,3.6-1.4C97.4,18.3,95.5,18.7,93.9,18.5
		 M94.8,19.5c1-0.3,2.1-0.2,3.2,0.1c-0.5,0.6-1.2,0.6-1.8,0.7c-0.9,0.1-1.7,0.3-2.6,0.5C93.6,20,94.1,19.7,94.8,19.5 M97,25.2
		c-0.7-0.2-1.4-0.6-2.1-0.8c-0.8-0.2-1.7-0.5-2.5-0.5c-1.4,0-2.6,0.7-3.3,1.9c-0.7,1.1-1.3,2.4-1.9,3.5c-0.1,0.2-0.3,0.5-0.4,0.7
		c-0.1,0-0.1,0-0.2-0.1c0.1-0.8,0.2-1.6,0.3-2.4c0.1-0.4,0.2-0.9,0.2-1.3c0-0.8,0.5-1.3,1.1-1.8c1.7-1.2,3.6-1.6,5.6-1.4
		c1.6,0.2,3.2,0.7,4.6,1.6c0.1,0.1,0.3,0.2,0.4,0.3c0,0,0,0.1,0.1,0.2C98.2,25.3,97.6,25.3,97,25.2 M98.1,45.2
		c-0.3,0.4-0.7,0.8-1.4,0.6c0.2-0.9,1-1.1,1.5-1.6C98.6,44.6,98.3,44.9,98.1,45.2 M95.9,44.6c0.9-1.1,1-2.2,0.9-3.5
		c-0.1-1.1-0.1-2.2-0.1-3.3c0-0.4,0.3-0.8,0.5-1.2c0.1,0,0.1,0,0.2,0.1c0,0.4,0.1,0.7,0.1,1.1c0.1,1.5,0.2,3.1,0.2,4.6
		C97.6,43.5,96.9,44.4,95.9,44.6 M92.3,44.7c1.1-1.2,2.6-2,3.3-3.5c0.6,0.5,0.7,0.9,0.4,1.5C95.5,43.5,93.4,44.8,92.3,44.7 M91,46.3
		c-0.9-1-0.3-4.2,1-4.6C92.1,43.3,91.6,44.8,91,46.3 M90.1,40.8c1.9-1.2,3.6-2.4,5.4-3.6C95.8,39.3,92.7,41.1,90.1,40.8 M93.6,36.9
		c-0.3,1-2,1.9-3.4,1.7C90.7,37.5,92.3,36.7,93.6,36.9 M91,36.4c0.2-0.5,0.7-0.9,1.3-1c1.2-0.2,2.3-0.2,3.5-0.3c0,0.1,0,0.2,0,0.2
		c-0.4,0.7-1,0.9-1.7,1C93.1,36.4,92.1,36.4,91,36.4 M93.1,26.2c0.2-0.5,0.6-0.8,1-0.7c0.7,0.1,1.3,0.2,1.9,0.3
		c0.5,0.1,0.9,0.3,1.4,0.5c-0.2,0.6-0.6,0.8-1.1,0.7C95.3,26.8,94.2,26.5,93.1,26.2 M92.5,27.4c0.3,0,0.5,0.5,0.2,0.7
		c-0.4,0.4-0.8,0.7-1.3,1.1C91.1,28.4,91.8,27.3,92.5,27.4 M90.3,26.3c0.3-0.1,0.7,0.2,0.5,0.6c-0.2,0.5-0.5,1-0.8,1.5
		c-0.2,0.3-0.6,0.6-0.9,0.9C88.8,28.2,89.4,26.7,90.3,26.3 M94.9,28.9c0,0,0.1,0.1,0.1,0.1c-0.2,0.3-0.3,0.6-0.5,0.9
		c-0.6,0.8-1.4,1.3-2.4,1.6c-1.3,0.5-2.6,0.5-4,0.2C90.4,30.6,93,30.6,94.9,28.9 M88.4,36.1c-0.4,0.7-0.8,1.5-1.3,2.2
		c-0.6,0.9-1.5,1.6-2.8,1.3c1.3-1.6,2.5-3.1,3.8-4.6c2-2.2,4.5-2.7,7.3-1.9c0.3,0.1,0.7,0.2,1,0.3c0,0.1,0,0.1,0,0.2
		c-0.5,0.2-1.1,0.4-1.7,0.5c-0.9,0.1-1.8,0.1-2.6,0.1C90.5,34.1,89.3,34.7,88.4,36.1 M87.6,39.2c0.3-1.1,1.1-1.9,1.8-1.7
		C89.5,38.5,88.4,39.4,87.6,39.2 M90.3,65.9c-1.4-0.6-2-2.2-1.3-3.1C89.7,63.7,90.2,64.7,90.3,65.9 M88.3,67.4
		c-0.2-0.1-0.4-0.1-0.5-0.2c-0.8-0.9-1.2-2-1.5-3.2c0.7-0.2,1.1,0.1,1.3,0.6c0.4,0.9,0.6,1.8,0.9,2.6C88.4,67.3,88.3,67.3,88.3,67.4
		 M84.4,64.9c0.8,0.4,1.1,1,2.2,3.9C85.3,68.7,83.7,66,84.4,64.9 M81,37.4c-0.1,0-0.2-0.1-0.2-0.1c0-0.1,0-0.1,0-0.2
		c0.4-0.1,0.7-0.2,1.1-0.4c1.7-0.6,3.3-1.5,4.4-3c0.1-0.1,0.3-0.1,0.5-0.2c0,0.2,0.2,0.4,0.1,0.5C85.6,36.6,83.6,37.7,81,37.4
		 M78.6,35.6c0-0.1,0-0.1,0-0.1c1.6-1.4,2.4-3.3,3.6-4.9c0.7-0.9,1.6-1.6,2.8-1.8c0.1,0,0.3,0,0.4,0c0,0,0.1,0,0.1,0.1
		c0,0.1,0,0.1,0,0.1c-1.6,1.1-2.5,2.8-3.7,4.3C81,34.2,80.1,35.2,78.6,35.6 M82.3,27.5c0.4-0.1,0.9,0,1.5,0
		c-0.7,1.5-3.9,2.4-5.7,1.4C79.5,28.4,80.9,27.9,82.3,27.5 M83,25.3c-0.1,0.2-0.1,0.5-0.3,0.7c-0.4,0.4-1.3,0.6-2,0.3
		c0.8-0.4,1.4-0.7,2.1-1C82.9,25.2,82.9,25.2,83,25.3 M80.4,25.7c0-1.8,2.1-3.6,3.5-3.1C83.5,24.5,81.5,24.6,80.4,25.7 M77.3,26.9
		c-0.1,0.2-0.3,0.3-0.5,0.5c0-0.2-0.1-0.3,0-0.4c0.7-2.3,1.7-4.3,3.6-5.9c1-0.8,2.2-1.2,3.5-1c0.2,0,0.3,0.2,0.5,0.3
		c-0.1,0.2-0.2,0.4-0.3,0.5c-0.3,0.2-0.6,0.3-0.9,0.3c-1.1,0-1.9,0.5-2.6,1.3c-0.8,0.9-1.4,2-2.1,2.9C78,25.9,77.7,26.4,77.3,26.9
		 M82.3,34.2c0.6-0.9,1.3-1.9,1.9-2.8c0.5,0.5,0.6,0.9,0.2,1.3c-0.6,0.6-1.2,1.1-1.8,1.7C82.4,34.3,82.4,34.2,82.3,34.2 M85.4,32.8
		c0.3,0.4,0.3,0.8-0.1,1.2c-0.8,0.8-1.6,1.4-2.7,1.6c-0.1,0-0.2,0-0.2,0c0,0-0.1,0-0.1-0.1C83.4,34.6,84.4,33.7,85.4,32.8 M87.8,22
		c0.3-0.7,0.9-1,1.6-1C89.2,21.7,88.4,22.2,87.8,22 M90.5,22.2c-0.4,0.7-1,1-1.7,0.7C89.3,22.1,89.7,22,90.5,22.2 M88.4,19
		c0.6-0.2,1.2-0.3,1.8-0.4c0.5-0.1,0.5,0.2,0.4,0.6c-0.2,0.6-0.6,0.9-1.2,0.9c-1.7,0-2.5,1.1-2.9,2.6c-0.2,0.6-0.5,1.1-0.8,1.6
		c-0.2,0.2-0.5,0.4-0.7,0.6C85.1,22.4,86.2,19.8,88.4,19 M92.9,16.5c-1.6,0.6-3.1,1.2-4.7,1.8C88.6,16.6,90.5,16,92.9,16.5
		 M103.8,14.8c0.1,0,0.4,0.2,0.5,0.4c0.1,0.2,0.2,0.5,0.4,1c-0.6-0.2-1.1-0.3-1.6-0.4c-0.1,0-0.1-0.1-0.1-0.2
		C103,15,103.5,15,103.8,14.8 M101.4,57.4c0.3,0,0.5,0.2,0.7,0.4c0.6,0.5,1.2,1.1,2,1.7c-1.3,0.1-2.4-0.2-3.3-1.1
		c-0.2-0.2-0.2-0.6-0.2-0.8C100.9,57.4,101.2,57.4,101.4,57.4 M103.3,55.9c1.1,0.2,2.1,0.4,3.1,0.6c0,0.1,0,0.2,0,0.2
		c-1,1.1-2.1,0.1-3.3,0.3C103.1,56.6,103.2,56.3,103.3,55.9 M103.6,54.2c0-0.1,0.2-0.3,0.3-0.2c0.7,0,1.3,0.1,2,0.2
		c0.2,0,0.3,0.1,0.5,0.2c-0.7,0.5-1.5,0.8-2.3,0.7C103.7,54.9,103.5,54.6,103.6,54.2 M57,66.6c0.5,0.5,1.1,1,1.6,1.4
		c0,0.1-0.1,0.2-0.1,0.3c-0.4-0.1-0.9-0.1-1.3-0.3c-0.4-0.2-0.8-0.5-1.1-0.8c-0.1-0.1-0.2-0.3-0.3-0.5c0.2-0.1,0.4-0.3,0.6-0.4
		C56.6,66.4,56.8,66.5,57,66.6 M58,65.8c0.9-1.1,0.7-1,1.7-0.2c0.7,0.5,1.1,1.2,1.4,2.1c-1.4-0.1-2.2-1.1-3.1-1.8
		C58,65.8,58,65.8,58,65.8 M61.2,64.3c0.5,0.3,0.9,0.7,0.9,1.5c-1-0.1-1.4-0.8-2-1.3C60.4,64.1,60.8,64.1,61.2,64.3 M31.5,66.2
		c-0.9-0.9-1-3.5,0-4.2C32.1,63.5,31.9,64.8,31.5,66.2 M30.2,66.7c-0.1,0-0.2,0-0.2,0c-0.3-0.7-0.6-1.3-0.8-2
		c-0.1-0.4,0-0.9,0.1-1.3c0-0.1,0.3-0.2,0.5-0.2c0.2,0,0.4,0.2,0.5,0.3c0.1,0.9,0.1,1.7,0.1,2.6C30.3,66.3,30.2,66.5,30.2,66.7
		 M28.3,66.6c-0.2-0.4-0.5-0.7-0.7-1.2c-0.2-0.4-0.2-0.9-0.2-1.3c0-0.2,0.1-0.4,0.1-0.6c0.2,0.1,0.5,0.1,0.7,0.2
		c0.2,0.1,0.3,0.4,0.3,0.6c0.1,0.7,0.1,1.4,0.1,2.1C28.5,66.5,28.4,66.5,28.3,66.6 M62.5,7.9c-0.8,0.7-2.3-0.2-2.6-1.4
		C61,6.6,61.7,7.2,62.5,7.9 M62.4,1.4C62.9,2,62.2,4,61.3,5.2C60.9,4.7,60.9,4.7,62.4,1.4 M63.7,2.5C64,3,63.3,4.4,62.4,5.5
		C62.2,4.8,62.9,3.2,63.7,2.5 M63.3,6.5c-0.2-1.4,1-2.3,1.1-3.6C65.2,3.8,64.6,5.5,63.3,6.5 M123,30c-0.3-0.1-0.6-0.3-0.9-0.5
		c-2.6-1.5-4.7-3.5-6.8-5.6c-1.9-1.9-3.8-3.9-6.2-5.3c-0.8-0.5-1.3-1.2-1.7-2c-0.3-0.8-0.7-1.5-1.2-2.2c-0.7-1-1.9-1.2-3-0.8
		c-0.5,0.2-1.1,0.5-1.6,0.8c-1.2,0.6-2.5,0.8-3.8,0.5c-1.3-0.3-2.5-0.5-3.8-0.2c-0.8,0.2-1.7,0.2-2.5,0.3c-2.5,0.4-4.9,1-6.8,2.7
		c-0.9,0.7-1.8,1.4-3,1.5c-1.6,0.2-2.8,1.1-4,2c-1.4,1.1-2.7,2.2-4,3.3c-2.5,2-5.2,3.3-8.4,3.6c-3.1,0.3-6.2-0.1-9.3-0.5
		c-2.8-0.3-5.6-0.6-8.5-0.2c-1.8,0.3-3.5,0.8-5,2.1c-1.1,0.9-2.1,1.9-3.2,2.7c-2.3,1.7-4.8,2-7.4,1c-2.1-0.9-3.6-2.5-4.6-4.6
		c-0.9-1.7-1.5-3.6-1.3-5.5c0.5-3.5,2.5-5.8,5.7-7.1c2.9-1.2,5.9-1.4,8.9-1.6c3.1-0.1,6.1-0.2,9.2-0.3c2.6-0.1,5.3-0.5,7.8-1.4
		c2.2-0.7,4.1-1.8,5.6-3.7c1.6-2.1,2.2-4.5,2.2-7c0-1.7,0-1.7-1.6-2c0,0,0,0-0.1,0c-0.8-0.2-1.1,0-1.5,0.7c-1.2,1.9-2.2,3.8-3.5,5.6
		c-1.5,2-3.5,3.4-6.1,3.5c-2.2,0.1-4.5,0-6.7,0c-1.7,0-3.4-0.1-5.1,0c-3.8,0.3-7.5,1.3-11.1,2.8c-2.1,0.9-3.9,2.3-5.3,4.2
		c-2.6,3.9-3,8.1-1.4,12.5c1.9,5.3,5.8,8.3,11.3,9.3c0.8,0.2,1.7,0.2,2.6,0.4c-0.8,1.3-1.6,2.5-2.4,3.7c-1.5,2.2-3.3,4-5.7,5.1
		c-0.7,0.3-1.4,0.8-2.1,1.3c-2,1.5-2.6,3-1.8,5.4c0.7,2.1,1,4.3,0.6,6.5c-0.2,0.9-2.3,9.5,5.5,7.6c0.9-0.2,1.6-1,2.2-1.6
		c1.7-1.7,1.8-3.2,0.6-5.2c-0.3-0.5-0.6-1.1-0.7-1.7c-0.3-1.1-0.1-1.3,0.9-1.7c1.4-0.6,3-0.5,4.5-0.6c1.1-0.1,2.3-0.3,3.1-1.1
		c0.9-0.9,1.8-1.9,2.6-2.9c0.8-1,1.5-2,2.6-2.6c0.6-0.3,1.2-0.5,2-0.3c-0.1,1.1-0.4,2-1,2.9c-0.4,0.7-1,1.4-1.4,2.1
		c-0.8,1.4-0.9,2.8,0,4.3c1.1,1.7,2.4,3.1,3.9,4.5c1.3,1.2,2.4,2.6,3.1,4.2c0.6,1.5,1.8,2.3,3.3,2.3c3.6,0,7.2-2.8,6.9-6.2
		c-0.1-1.3-0.2-2.5-1.7-2.8c-0.6-0.1-1.2-0.2-1.7-0.3c-1-0.2-2.1-0.3-3.1-0.5c-0.4-0.1-0.5-0.3-0.5-0.7c0-1.5,0.5-2.9,1.2-4.1
		c1.1-2,2.3-3.9,3.4-5.8c0.3-0.5,0.6-0.6,1.1-0.6c1.9,0.2,3.8,0.4,5.7,0.4c3.3,0.1,6.6-0.1,9.9-0.6c0.6-0.1,1.3-0.1,2-0.2
		c-0.1,2.1-0.2,4.1-0.3,6c-0.1,3-0.2,6-0.2,9c0,0.8,0.3,1.4,0.8,2c2.1,3.2,6.3,3.3,8.1,2.8c2.3-0.7,4.1-3.3,3.5-5.5
		c-0.2-0.8-0.7-1.6-1.1-2.3c-0.9-1.5-1.5-3-1.2-4.8c0.1-0.9,0.4-1.8,0.5-2.7c0.1-0.8,0.2-1.5,0.4-2.4c0.3,0.3,0.6,0.5,0.8,0.8
		c0.8,1,1.6,2,2.4,3c1.3,1.7,2.6,3.5,4.4,4.7c1.7,1.2,3.6,1.8,5.7,1.1c2.5-0.8,4.4-3.9,4.2-6.6c-0.1-1.3-0.9-2.3-2.1-2.5
		c-0.8-0.2-1.7-0.1-2.6-0.2c-0.2,0-0.4,0-0.5-0.1c-0.9-0.9-1.9-1.8-2.8-2.7c-1.4-1.4-1.7-2.6-0.7-4.4c1-1.8,2.1-3.6,3.3-5.4
		c0.4-0.6,1-1,1.5-1.4c0.3-0.3,0.6-0.2,0.9,0.2c0.8,0.9,1.6,1.8,2.5,2.5c1.6,1.5,3.4,2.7,5.6,3.1c2.6,0.5,4.5-0.6,5.2-3.1
		c0.5-1.7,1.2-3.2,2.4-4.6c0.5-0.6,0.9-1.2,1.4-1.7c0.8-1.1,1.7-2.2,1.8-3.7C123.6,30.6,123.6,30.2,123,30"></path>
	<g class="slogan">
		<path d="M0.3,117.1v-2.3h7.3v2.3H5.3v8.5H2.6v-8.5H0.3z"></path>
		<path d="M8.6,125.6v-10.8h2.6v3.4h2.3v-3.4h2.6v10.8h-2.6v-5.1h-2.3v5.1H8.6z"></path>
		<path d="M18.1,125.6v-10.8H24v2.3h-3.3v1.3h3.2v2.3h-3.2v2.5h3.4v2.3H18.1z"></path>
		<path d="M28.9,125.6l-1.4-10.8h2.7l0.7,6.2h0.1l0.9-3.6h1.6l1,3.6h0.1l0.8-6.2h2.7l-1.6,10.8h-2.7l-1-3.8l-1,3.8H28.9z"></path>
		<path d="M38.6,120.1c0-1.8,0.4-3.2,1.1-4.1c0.7-0.9,1.7-1.4,3-1.4c1.2,0,2.2,0.5,3,1.4c0.7,0.9,1.1,2.3,1.1,4.1s-0.4,3.2-1.1,4.2
			c-0.7,1-1.7,1.4-3,1.4c-1.2,0-2.3-0.5-3-1.4C39,123.4,38.6,122,38.6,120.1z M42.7,117.1c-0.9,0-1.4,1-1.4,2.9
			c0,2.2,0.4,3.3,1.4,3.3c0.9,0,1.4-1.1,1.4-3.3C44,118.1,43.6,117.1,42.7,117.1z"></path>
		<path d="M48,125.6v-10.8h3.9c1,0,2,0.4,2.7,1.4c0.4,0.5,0.5,1.1,0.5,1.8c0,0.7-0.2,1.3-0.8,1.9c-0.1,0.2-0.3,0.3-0.5,0.5l2.1,5.2
			h-2.8l-1.7-4.7h-0.7v4.7H48z M50.7,117.1v1.6h0.9c0.5,0,0.8-0.4,0.8-0.8s-0.4-0.8-0.8-0.8H50.7z"></path>
		<path d="M56.7,125.6v-10.8h2.6v8.5h3.5v2.3H56.7z"></path>
		<path d="M63.8,125.6v-10.8h3c1.2,0,2.3,0.4,3.2,1.2c0.4,0.4,0.8,1,1.1,1.7c0.3,0.7,0.4,1.5,0.4,2.5c0,1-0.1,1.8-0.4,2.5
			c-0.3,0.7-0.6,1.3-1.1,1.7c-0.9,0.8-1.9,1.2-3.2,1.2H63.8z M66.4,123.3h0.4c1.2,0,1.9-1.1,1.9-3.1c0-2.1-0.7-3-2-3h-0.4V123.3z"></path>
		<path d="M72.8,116.7h-1.3l0.4-2.4h1.5L72.8,116.7z"></path>
		<path d="M77.9,118.1l0-0.1c0-1.2-1.1-1.5-1.5-1c-0.4,0.5-0.3,1.1,0.6,1.5l1.1,0.6c1.4,0.7,2.1,1.9,2.1,3.4c0,1-0.3,1.8-0.9,2.5
			c-0.6,0.6-1.5,0.9-2.6,0.9c-2.2,0-3.5-1.5-3.5-4.1l2.5-0.3l0,0.2c0,1.3,0.4,2,1,2c0.6,0,0.9-0.5,0.9-1.1c0-0.7-0.4-1.2-1.4-1.7
			l-1-0.5c-1.2-0.6-1.7-1.7-1.7-2.8c0-1.8,1.2-2.9,3.2-2.9c1,0,1.8,0.3,2.4,0.8c0.6,0.5,0.9,1.2,0.9,2.1v0.2L77.9,118.1z"></path>
		<path d="M84.4,125.6v-10.8h5.9v2.3H87v1.3H90v2.3H87v4.8H84.4z"></path>
		<path d="M91.5,125.6v-10.8h5.9v2.3h-3.3v1.3h3.2v2.3h-3.2v2.5h3.4v2.3H91.5z"></path>
		<path d="M102.9,118.1l0-0.1c0-1.2-1.1-1.5-1.5-1c-0.4,0.5-0.3,1.1,0.6,1.5l1.1,0.6c1.4,0.7,2.1,1.9,2.1,3.4c0,1-0.3,1.8-0.9,2.5
			c-0.6,0.6-1.5,0.9-2.6,0.9c-2.2,0-3.5-1.5-3.5-4.1l2.5-0.3l0,0.2c0,1.3,0.4,2,1,2c0.6,0,0.9-0.5,0.9-1.1c0-0.7-0.4-1.2-1.4-1.7
			l-1-0.5c-1.2-0.6-1.7-1.7-1.7-2.8c0-1.8,1.2-2.9,3.2-2.9c1,0,1.8,0.3,2.4,0.8c0.6,0.5,0.9,1.2,0.9,2.1v0.2L102.9,118.1z"></path>
		<path d="M105.8,117.1v-2.3h7.3v2.3h-2.4v8.5h-2.6v-8.5H105.8z"></path>
		<path d="M114.1,125.6v-10.8h2.6v10.8H114.1z"></path>
		<path d="M120.3,125.6l-2.5-10.8h2.8l1.3,6.6l0.1,1h0l0.1-1l1.4-6.6h2.7l-2.5,10.8H120.3z"></path>
		<path d="M125.8,125.6l2.4-10.8h3.7l2.6,10.8h-2.8l-0.7-3.3h-1.9l-0.7,3.3H125.8z M130.1,116.9l-0.6,3.3h1.3L130.1,116.9
			L130.1,116.9z"></path>
		<path d="M135.6,125.6v-10.8h2.6v8.5h3.5v2.3H135.6z"></path>
	</g>
</g>
</svg>